<mxfile host="app.diagrams.net" modified="2023-06-21T12:09:21.484Z" agent="Mozilla/5.0 (Macintosh; Intel Mac OS X 10_15_7) AppleWebKit/537.36 (KHTML, like Gecko) Chrome/114.0.0.0 Safari/537.36" etag="QYc_0wfpC_2ZRJVHbnLO" version="21.5.0" type="github" pages="5">
  <diagram name="ClassDiagram_WholeSystem_1.0.0" id="b1ACDXltd7J6oD_BnMsB">
    <mxGraphModel dx="1026" dy="604" grid="1" gridSize="10" guides="1" tooltips="1" connect="1" arrows="1" fold="1" page="1" pageScale="1" pageWidth="827" pageHeight="1169" math="0" shadow="0">
      <root>
        <mxCell id="0" />
        <mxCell id="1" parent="0" />
        <mxCell id="eZj1m79tcB2HefCqCbln-16" style="edgeStyle=orthogonalEdgeStyle;shape=connector;rounded=0;orthogonalLoop=1;jettySize=auto;html=1;exitX=1;exitY=0.25;exitDx=0;exitDy=0;entryX=0;entryY=0.25;entryDx=0;entryDy=0;labelBackgroundColor=default;strokeColor=default;strokeWidth=3;fontFamily=Helvetica;fontSize=15;fontColor=default;endArrow=classic;fontStyle=1" parent="1" source="eZj1m79tcB2HefCqCbln-14" target="eZj1m79tcB2HefCqCbln-15" edge="1">
          <mxGeometry relative="1" as="geometry" />
        </mxCell>
        <mxCell id="eZj1m79tcB2HefCqCbln-14" value="사용자" style="rounded=0;whiteSpace=wrap;html=1;strokeColor=default;strokeWidth=3;fontFamily=Helvetica;fontSize=15;fontColor=default;fillColor=none;fontStyle=1" parent="1" vertex="1">
          <mxGeometry x="40" y="295" width="120" height="60" as="geometry" />
        </mxCell>
        <mxCell id="eZj1m79tcB2HefCqCbln-18" style="edgeStyle=orthogonalEdgeStyle;shape=connector;rounded=0;orthogonalLoop=1;jettySize=auto;html=1;exitX=0;exitY=0.75;exitDx=0;exitDy=0;labelBackgroundColor=default;strokeColor=default;strokeWidth=3;fontFamily=Helvetica;fontSize=15;fontColor=default;endArrow=classic;dashed=1;fontStyle=1" parent="1" source="eZj1m79tcB2HefCqCbln-15" edge="1">
          <mxGeometry relative="1" as="geometry">
            <mxPoint x="200" y="340" as="targetPoint" />
          </mxGeometry>
        </mxCell>
        <mxCell id="eZj1m79tcB2HefCqCbln-36" value="&lt;font color=&quot;#00cc00&quot;&gt;4. 게임 플레이 제공&lt;/font&gt;" style="edgeLabel;html=1;align=center;verticalAlign=middle;resizable=0;points=[];fontSize=15;fontFamily=Helvetica;fontColor=default;fontStyle=1" parent="eZj1m79tcB2HefCqCbln-18" vertex="1" connectable="0">
          <mxGeometry x="0.1609" y="-1" relative="1" as="geometry">
            <mxPoint x="13" as="offset" />
          </mxGeometry>
        </mxCell>
        <mxCell id="eZj1m79tcB2HefCqCbln-27" style="edgeStyle=orthogonalEdgeStyle;shape=connector;rounded=0;orthogonalLoop=1;jettySize=auto;html=1;exitX=1;exitY=0.25;exitDx=0;exitDy=0;entryX=0;entryY=0.5;entryDx=0;entryDy=0;labelBackgroundColor=default;strokeColor=default;strokeWidth=3;fontFamily=Helvetica;fontSize=15;fontColor=default;endArrow=classic;fontStyle=1" parent="1" source="eZj1m79tcB2HefCqCbln-15" target="eZj1m79tcB2HefCqCbln-23" edge="1">
          <mxGeometry relative="1" as="geometry" />
        </mxCell>
        <mxCell id="eZj1m79tcB2HefCqCbln-28" value="&lt;font color=&quot;#00cc00&quot;&gt;2. Unity 엔진 조회&lt;/font&gt;" style="edgeLabel;html=1;align=center;verticalAlign=middle;resizable=0;points=[];fontSize=15;fontFamily=Helvetica;fontColor=default;fontStyle=1" parent="eZj1m79tcB2HefCqCbln-27" vertex="1" connectable="0">
          <mxGeometry x="0.0236" y="-2" relative="1" as="geometry">
            <mxPoint as="offset" />
          </mxGeometry>
        </mxCell>
        <mxCell id="eZj1m79tcB2HefCqCbln-32" style="edgeStyle=orthogonalEdgeStyle;shape=connector;rounded=0;orthogonalLoop=1;jettySize=auto;html=1;exitX=1;exitY=0.5;exitDx=0;exitDy=0;entryX=0;entryY=0.5;entryDx=0;entryDy=0;labelBackgroundColor=default;strokeColor=default;strokeWidth=3;fontFamily=Helvetica;fontSize=15;fontColor=default;endArrow=classic;fontStyle=1" parent="1" source="eZj1m79tcB2HefCqCbln-15" target="eZj1m79tcB2HefCqCbln-29" edge="1">
          <mxGeometry relative="1" as="geometry" />
        </mxCell>
        <mxCell id="eZj1m79tcB2HefCqCbln-33" value="&lt;font color=&quot;#00cc00&quot;&gt;3. 플레이 정책 적용&lt;/font&gt;" style="edgeLabel;html=1;align=center;verticalAlign=middle;resizable=0;points=[];fontSize=15;fontFamily=Helvetica;fontColor=default;fontStyle=1" parent="eZj1m79tcB2HefCqCbln-32" vertex="1" connectable="0">
          <mxGeometry x="-0.0295" y="-2" relative="1" as="geometry">
            <mxPoint x="28" y="-2" as="offset" />
          </mxGeometry>
        </mxCell>
        <mxCell id="eZj1m79tcB2HefCqCbln-15" value="게임 서비스 역할" style="rounded=0;whiteSpace=wrap;html=1;strokeColor=default;strokeWidth=3;fontFamily=Helvetica;fontSize=15;fontColor=default;fillColor=none;fontStyle=1" parent="1" vertex="1">
          <mxGeometry x="360" y="295" width="120" height="60" as="geometry" />
        </mxCell>
        <mxCell id="eZj1m79tcB2HefCqCbln-17" value="&lt;font color=&quot;#00cc00&quot;&gt;1. 게임의 상세 설정 생성&lt;/font&gt;&lt;br style=&quot;font-size: 15px;&quot;&gt;- 연령층&lt;br style=&quot;font-size: 15px;&quot;&gt;-스테이지&lt;br style=&quot;font-size: 15px;&quot;&gt;-난이도" style="text;html=1;strokeColor=none;fillColor=none;align=center;verticalAlign=middle;whiteSpace=wrap;rounded=0;fontSize=15;fontFamily=Helvetica;fontColor=default;fontStyle=1" parent="1" vertex="1">
          <mxGeometry x="210" y="240" width="150" height="30" as="geometry" />
        </mxCell>
        <mxCell id="eZj1m79tcB2HefCqCbln-19" value="return" style="text;html=1;strokeColor=none;fillColor=none;align=center;verticalAlign=middle;whiteSpace=wrap;rounded=0;fontSize=15;fontFamily=Helvetica;fontColor=default;fontStyle=1" parent="1" vertex="1">
          <mxGeometry x="250" y="305" width="60" height="30" as="geometry" />
        </mxCell>
        <mxCell id="eZj1m79tcB2HefCqCbln-21" style="edgeStyle=orthogonalEdgeStyle;shape=connector;rounded=0;orthogonalLoop=1;jettySize=auto;html=1;exitX=0.5;exitY=0;exitDx=0;exitDy=0;entryX=0.5;entryY=1;entryDx=0;entryDy=0;labelBackgroundColor=default;strokeColor=default;strokeWidth=3;fontFamily=Helvetica;fontSize=15;fontColor=default;endArrow=block;dashed=1;endFill=0;fontStyle=1" parent="1" source="eZj1m79tcB2HefCqCbln-20" target="eZj1m79tcB2HefCqCbln-15" edge="1">
          <mxGeometry relative="1" as="geometry" />
        </mxCell>
        <mxCell id="eZj1m79tcB2HefCqCbln-20" value="게임 서비스 구현체" style="rounded=0;whiteSpace=wrap;html=1;strokeColor=default;strokeWidth=3;fontFamily=Helvetica;fontSize=15;fontColor=default;fillColor=none;fontStyle=1" parent="1" vertex="1">
          <mxGeometry x="360" y="435" width="120" height="60" as="geometry" />
        </mxCell>
        <mxCell id="eZj1m79tcB2HefCqCbln-25" style="edgeStyle=orthogonalEdgeStyle;shape=connector;rounded=0;orthogonalLoop=1;jettySize=auto;html=1;exitX=0.5;exitY=0;exitDx=0;exitDy=0;entryX=0.5;entryY=0;entryDx=0;entryDy=0;labelBackgroundColor=default;strokeColor=default;strokeWidth=3;fontFamily=Helvetica;fontSize=15;fontColor=default;endArrow=none;endFill=0;dashed=1;fontStyle=1" parent="1" source="eZj1m79tcB2HefCqCbln-22" target="eZj1m79tcB2HefCqCbln-24" edge="1">
          <mxGeometry relative="1" as="geometry">
            <Array as="points">
              <mxPoint x="700" y="170" />
              <mxPoint x="900" y="170" />
            </Array>
          </mxGeometry>
        </mxCell>
        <mxCell id="eZj1m79tcB2HefCqCbln-22" value="RAM 메모리&lt;br style=&quot;font-size: 15px;&quot;&gt;게임 엔진 저장소" style="rounded=0;whiteSpace=wrap;html=1;strokeColor=default;strokeWidth=3;fontFamily=Helvetica;fontSize=15;fontColor=default;fillColor=none;fontStyle=1" parent="1" vertex="1">
          <mxGeometry x="640" y="190" width="120" height="60" as="geometry" />
        </mxCell>
        <mxCell id="eZj1m79tcB2HefCqCbln-23" value="게임 엔진&lt;br style=&quot;font-size: 15px;&quot;&gt;저장소 역할" style="rounded=0;whiteSpace=wrap;html=1;strokeColor=default;strokeWidth=3;fontFamily=Helvetica;fontSize=15;fontColor=default;fillColor=none;fontStyle=1" parent="1" vertex="1">
          <mxGeometry x="730" y="30" width="120" height="60" as="geometry" />
        </mxCell>
        <mxCell id="eZj1m79tcB2HefCqCbln-24" value="모바일 디바이스&lt;br style=&quot;font-size: 15px;&quot;&gt;내장 스토리지&lt;br style=&quot;font-size: 15px;&quot;&gt;게임 엔진 저장소" style="rounded=0;whiteSpace=wrap;html=1;strokeColor=default;strokeWidth=3;fontFamily=Helvetica;fontSize=15;fontColor=default;fillColor=none;fontStyle=1" parent="1" vertex="1">
          <mxGeometry x="840" y="190" width="120" height="60" as="geometry" />
        </mxCell>
        <mxCell id="eZj1m79tcB2HefCqCbln-26" value="" style="endArrow=block;html=1;rounded=0;labelBackgroundColor=default;strokeColor=default;strokeWidth=3;fontFamily=Helvetica;fontSize=15;fontColor=default;shape=connector;entryX=0.5;entryY=1;entryDx=0;entryDy=0;dashed=1;endFill=0;fontStyle=1" parent="1" target="eZj1m79tcB2HefCqCbln-23" edge="1">
          <mxGeometry width="50" height="50" relative="1" as="geometry">
            <mxPoint x="790" y="170" as="sourcePoint" />
            <mxPoint x="750" y="265" as="targetPoint" />
          </mxGeometry>
        </mxCell>
        <mxCell id="eZj1m79tcB2HefCqCbln-29" value="플레이 정책 역할" style="rounded=0;whiteSpace=wrap;html=1;strokeColor=default;strokeWidth=3;fontFamily=Helvetica;fontSize=15;fontColor=default;fillColor=none;fontStyle=1" parent="1" vertex="1">
          <mxGeometry x="730" y="295" width="120" height="60" as="geometry" />
        </mxCell>
        <mxCell id="eZj1m79tcB2HefCqCbln-34" style="edgeStyle=orthogonalEdgeStyle;shape=connector;rounded=0;orthogonalLoop=1;jettySize=auto;html=1;exitX=0.5;exitY=0;exitDx=0;exitDy=0;entryX=0.5;entryY=0;entryDx=0;entryDy=0;labelBackgroundColor=default;strokeColor=default;strokeWidth=3;fontFamily=Helvetica;fontSize=15;fontColor=default;endArrow=none;endFill=0;dashed=1;fontStyle=1" parent="1" source="eZj1m79tcB2HefCqCbln-30" target="a-sHhc6yF14gLiTBd6i2-1" edge="1">
          <mxGeometry relative="1" as="geometry">
            <mxPoint x="790" y="462" as="targetPoint" />
          </mxGeometry>
        </mxCell>
        <mxCell id="eZj1m79tcB2HefCqCbln-30" value="난이도 판정&lt;br style=&quot;font-size: 15px;&quot;&gt;정책" style="rounded=0;whiteSpace=wrap;html=1;strokeColor=default;strokeWidth=3;fontFamily=Helvetica;fontSize=15;fontColor=default;fillColor=none;fontStyle=1" parent="1" vertex="1">
          <mxGeometry x="640" y="462" width="120" height="60" as="geometry" />
        </mxCell>
        <mxCell id="eZj1m79tcB2HefCqCbln-35" value="" style="endArrow=block;html=1;rounded=0;labelBackgroundColor=default;strokeColor=default;strokeWidth=3;fontFamily=Helvetica;fontSize=15;fontColor=default;shape=connector;entryX=0.5;entryY=1;entryDx=0;entryDy=0;dashed=1;endFill=0;fontStyle=1" parent="1" target="eZj1m79tcB2HefCqCbln-29" edge="1">
          <mxGeometry width="50" height="50" relative="1" as="geometry">
            <mxPoint x="790" y="440" as="sourcePoint" />
            <mxPoint x="740" y="495" as="targetPoint" />
          </mxGeometry>
        </mxCell>
        <mxCell id="a-sHhc6yF14gLiTBd6i2-2" style="edgeStyle=orthogonalEdgeStyle;shape=connector;rounded=0;orthogonalLoop=1;jettySize=auto;html=1;exitX=0.5;exitY=0;exitDx=0;exitDy=0;labelBackgroundColor=default;strokeColor=default;strokeWidth=3;fontFamily=Helvetica;fontSize=12;fontColor=default;endArrow=none;endFill=0;dashed=1;" parent="1" source="a-sHhc6yF14gLiTBd6i2-1" edge="1">
          <mxGeometry relative="1" as="geometry">
            <mxPoint x="960" y="464" as="sourcePoint" />
            <mxPoint x="790" y="372" as="targetPoint" />
            <Array as="points">
              <mxPoint x="900" y="442" />
              <mxPoint x="790" y="442" />
            </Array>
          </mxGeometry>
        </mxCell>
        <mxCell id="a-sHhc6yF14gLiTBd6i2-1" value="엔딩 로그 정책" style="rounded=0;whiteSpace=wrap;html=1;strokeColor=default;strokeWidth=3;fontFamily=Helvetica;fontSize=15;fontColor=default;fillColor=none;fontStyle=1" parent="1" vertex="1">
          <mxGeometry x="840" y="462" width="120" height="60" as="geometry" />
        </mxCell>
      </root>
    </mxGraphModel>
  </diagram>
  <diagram id="FkN1ZtWHinQJaNbXlDVE" name="Page-2">
    <mxGraphModel dx="694" dy="479" grid="1" gridSize="10" guides="1" tooltips="1" connect="1" arrows="1" fold="1" page="1" pageScale="1" pageWidth="827" pageHeight="1169" math="0" shadow="0">
      <root>
        <mxCell id="0" />
        <mxCell id="1" parent="0" />
        <mxCell id="MfU5YPMloGoEbg8OM1Qj-1" style="edgeStyle=orthogonalEdgeStyle;shape=connector;rounded=0;orthogonalLoop=1;jettySize=auto;html=1;exitX=0.5;exitY=0;exitDx=0;exitDy=0;labelBackgroundColor=default;strokeColor=default;strokeWidth=3;fontFamily=Helvetica;fontSize=12;fontColor=default;endArrow=classic;dashed=1;" parent="1" source="MfU5YPMloGoEbg8OM1Qj-5" target="MfU5YPMloGoEbg8OM1Qj-8" edge="1">
          <mxGeometry relative="1" as="geometry" />
        </mxCell>
        <mxCell id="MfU5YPMloGoEbg8OM1Qj-2" value="&lt;font style=&quot;font-size: 15px;&quot;&gt;&lt;b&gt;생성&lt;/b&gt;&lt;/font&gt;" style="edgeLabel;html=1;align=center;verticalAlign=middle;resizable=0;points=[];fontSize=12;fontFamily=Helvetica;fontColor=default;" parent="MfU5YPMloGoEbg8OM1Qj-1" vertex="1" connectable="0">
          <mxGeometry x="0.0269" y="-2" relative="1" as="geometry">
            <mxPoint x="-2" as="offset" />
          </mxGeometry>
        </mxCell>
        <mxCell id="MfU5YPMloGoEbg8OM1Qj-3" style="edgeStyle=orthogonalEdgeStyle;shape=connector;rounded=0;orthogonalLoop=1;jettySize=auto;html=1;exitX=1;exitY=0.5;exitDx=0;exitDy=0;entryX=0;entryY=0.5;entryDx=0;entryDy=0;labelBackgroundColor=default;strokeColor=default;strokeWidth=3;fontFamily=Helvetica;fontSize=12;fontColor=default;endArrow=block;endFill=0;dashed=1;" parent="1" source="MfU5YPMloGoEbg8OM1Qj-5" target="MfU5YPMloGoEbg8OM1Qj-10" edge="1">
          <mxGeometry relative="1" as="geometry" />
        </mxCell>
        <mxCell id="MfU5YPMloGoEbg8OM1Qj-4" value="&lt;font size=&quot;1&quot; style=&quot;&quot;&gt;&lt;b style=&quot;font-size: 15px;&quot;&gt;생성&lt;/b&gt;&lt;/font&gt;" style="edgeLabel;html=1;align=center;verticalAlign=middle;resizable=0;points=[];fontSize=12;fontFamily=Helvetica;fontColor=default;" parent="MfU5YPMloGoEbg8OM1Qj-3" vertex="1" connectable="0">
          <mxGeometry x="-0.0094" y="1" relative="1" as="geometry">
            <mxPoint as="offset" />
          </mxGeometry>
        </mxCell>
        <mxCell id="MfU5YPMloGoEbg8OM1Qj-5" value="AppConfig" style="rounded=0;whiteSpace=wrap;html=1;strokeWidth=3;fillColor=none;" parent="1" vertex="1">
          <mxGeometry x="80" y="320" width="120" height="60" as="geometry" />
        </mxCell>
        <mxCell id="MfU5YPMloGoEbg8OM1Qj-6" style="edgeStyle=orthogonalEdgeStyle;rounded=0;orthogonalLoop=1;jettySize=auto;html=1;exitX=1;exitY=0.5;exitDx=0;exitDy=0;fontFamily=Helvetica;fontSize=12;fontColor=default;strokeWidth=3;" parent="1" source="MfU5YPMloGoEbg8OM1Qj-8" target="MfU5YPMloGoEbg8OM1Qj-11" edge="1">
          <mxGeometry relative="1" as="geometry" />
        </mxCell>
        <mxCell id="MfU5YPMloGoEbg8OM1Qj-7" style="edgeStyle=orthogonalEdgeStyle;shape=connector;rounded=0;orthogonalLoop=1;jettySize=auto;html=1;exitX=0.5;exitY=0;exitDx=0;exitDy=0;labelBackgroundColor=default;strokeColor=default;strokeWidth=3;fontFamily=Helvetica;fontSize=12;fontColor=default;endArrow=block;endFill=0;dashed=1;" parent="1" source="MfU5YPMloGoEbg8OM1Qj-8" target="MfU5YPMloGoEbg8OM1Qj-9" edge="1">
          <mxGeometry relative="1" as="geometry" />
        </mxCell>
        <mxCell id="MfU5YPMloGoEbg8OM1Qj-8" value="ServiceImpl" style="rounded=0;whiteSpace=wrap;html=1;strokeWidth=3;fillColor=none;" parent="1" vertex="1">
          <mxGeometry x="80" y="180" width="120" height="60" as="geometry" />
        </mxCell>
        <mxCell id="MfU5YPMloGoEbg8OM1Qj-9" value="&amp;lt;&amp;lt;interface&amp;gt;&amp;gt;&lt;br&gt;Service" style="rounded=0;whiteSpace=wrap;html=1;strokeWidth=3;fillColor=none;" parent="1" vertex="1">
          <mxGeometry x="80" y="40" width="120" height="60" as="geometry" />
        </mxCell>
        <mxCell id="MfU5YPMloGoEbg8OM1Qj-10" value="MemoryRepository" style="rounded=0;whiteSpace=wrap;html=1;strokeWidth=3;fillColor=none;" parent="1" vertex="1">
          <mxGeometry x="440" y="320" width="120" height="60" as="geometry" />
        </mxCell>
        <mxCell id="MfU5YPMloGoEbg8OM1Qj-11" value="&amp;lt;&amp;lt;interface&amp;gt;&amp;gt;&lt;br&gt;Repository" style="rounded=0;whiteSpace=wrap;html=1;strokeWidth=3;fillColor=none;" parent="1" vertex="1">
          <mxGeometry x="440" y="180" width="120" height="60" as="geometry" />
        </mxCell>
        <mxCell id="MfU5YPMloGoEbg8OM1Qj-12" style="edgeStyle=orthogonalEdgeStyle;shape=connector;rounded=0;orthogonalLoop=1;jettySize=auto;html=1;exitX=0.5;exitY=0;exitDx=0;exitDy=0;labelBackgroundColor=default;strokeColor=default;strokeWidth=3;fontFamily=Helvetica;fontSize=12;fontColor=default;endArrow=block;endFill=0;dashed=1;entryX=0.5;entryY=1;entryDx=0;entryDy=0;" parent="1" source="MfU5YPMloGoEbg8OM1Qj-10" target="MfU5YPMloGoEbg8OM1Qj-11" edge="1">
          <mxGeometry relative="1" as="geometry">
            <mxPoint x="150" y="190" as="sourcePoint" />
            <mxPoint x="150" y="110" as="targetPoint" />
          </mxGeometry>
        </mxCell>
      </root>
    </mxGraphModel>
  </diagram>
  <diagram id="RWKY1fRTsHw3p6vCri7X" name="ClassDiagram_WholeSystem_Deep_1.0.0">
    <mxGraphModel dx="7667" dy="5196" grid="1" gridSize="10" guides="1" tooltips="1" connect="1" arrows="1" fold="1" page="1" pageScale="1" pageWidth="827" pageHeight="1169" math="0" shadow="0">
      <root>
        <mxCell id="0" />
        <mxCell id="1" parent="0" />
        <mxCell id="sYEwyzhLmwCVJRnSKT3c-52" style="edgeStyle=orthogonalEdgeStyle;shape=connector;rounded=0;orthogonalLoop=1;jettySize=auto;html=1;exitX=0.5;exitY=0;exitDx=0;exitDy=0;entryX=0.5;entryY=1;entryDx=0;entryDy=0;labelBackgroundColor=default;strokeColor=default;strokeWidth=3;fontFamily=Helvetica;fontSize=12;fontColor=default;endArrow=block;dashed=1;endFill=0;" parent="1" source="sYEwyzhLmwCVJRnSKT3c-35" target="sYEwyzhLmwCVJRnSKT3c-39" edge="1">
          <mxGeometry relative="1" as="geometry" />
        </mxCell>
        <mxCell id="sYEwyzhLmwCVJRnSKT3c-35" value="CprPolicy" style="swimlane;fontStyle=1;align=center;verticalAlign=top;childLayout=stackLayout;horizontal=1;startSize=26;horizontalStack=0;resizeParent=1;resizeParentMax=0;resizeLast=0;collapsible=1;marginBottom=0;whiteSpace=wrap;html=1;rounded=0;strokeColor=default;strokeWidth=3;fontFamily=Helvetica;fontSize=12;fontColor=default;fillColor=none;" parent="1" vertex="1">
          <mxGeometry x="-406" y="755" width="250" height="220" as="geometry">
            <mxRectangle x="1270" y="310" width="100" height="30" as="alternateBounds" />
          </mxGeometry>
        </mxCell>
        <mxCell id="sYEwyzhLmwCVJRnSKT3c-36" value="- startingHeart&lt;br&gt;- heartArrangeCount&lt;br&gt;- finalHeart&lt;br&gt;+ cprLogData&lt;br&gt;+ userTouch&lt;br&gt;+ Difficulty&lt;br&gt;+ Age&lt;br&gt;+ cprDraw" style="text;strokeColor=none;fillColor=none;align=left;verticalAlign=top;spacingLeft=4;spacingRight=4;overflow=hidden;rotatable=0;points=[[0,0.5],[1,0.5]];portConstraint=eastwest;whiteSpace=wrap;html=1;fontSize=12;fontFamily=Helvetica;fontColor=default;" parent="sYEwyzhLmwCVJRnSKT3c-35" vertex="1">
          <mxGeometry y="26" width="250" height="124" as="geometry" />
        </mxCell>
        <mxCell id="sYEwyzhLmwCVJRnSKT3c-37" value="" style="line;strokeWidth=1;fillColor=none;align=left;verticalAlign=middle;spacingTop=-1;spacingLeft=3;spacingRight=3;rotatable=0;labelPosition=right;points=[];portConstraint=eastwest;strokeColor=inherit;rounded=0;fontFamily=Helvetica;fontSize=12;fontColor=default;html=1;" parent="sYEwyzhLmwCVJRnSKT3c-35" vertex="1">
          <mxGeometry y="150" width="250" height="8" as="geometry" />
        </mxCell>
        <mxCell id="sYEwyzhLmwCVJRnSKT3c-38" value="+ getCprUserTouch()&lt;br&gt;+ setCprHeart()&lt;br&gt;+ setCprCountDraw()" style="text;strokeColor=none;fillColor=none;align=left;verticalAlign=top;spacingLeft=4;spacingRight=4;overflow=hidden;rotatable=0;points=[[0,0.5],[1,0.5]];portConstraint=eastwest;whiteSpace=wrap;html=1;fontSize=12;fontFamily=Helvetica;fontColor=default;" parent="sYEwyzhLmwCVJRnSKT3c-35" vertex="1">
          <mxGeometry y="158" width="250" height="62" as="geometry" />
        </mxCell>
        <mxCell id="D3WIe9RIHGnLOvGYux2O-34" style="edgeStyle=orthogonalEdgeStyle;rounded=0;orthogonalLoop=1;jettySize=auto;html=1;exitX=0.5;exitY=0;exitDx=0;exitDy=0;entryX=0.5;entryY=0;entryDx=0;entryDy=0;strokeWidth=3;endArrow=none;endFill=0;strokeColor=default;dashed=1;" parent="1" source="sYEwyzhLmwCVJRnSKT3c-39" target="sYEwyzhLmwCVJRnSKT3c-54" edge="1">
          <mxGeometry relative="1" as="geometry">
            <Array as="points">
              <mxPoint x="-281" y="380" />
              <mxPoint x="448" y="380" />
            </Array>
          </mxGeometry>
        </mxCell>
        <mxCell id="sYEwyzhLmwCVJRnSKT3c-39" value="&amp;lt;&amp;lt;PlayPolicy&amp;gt;&amp;gt;" style="swimlane;fontStyle=1;align=center;verticalAlign=top;childLayout=stackLayout;horizontal=1;startSize=26;horizontalStack=0;resizeParent=1;resizeParentMax=0;resizeLast=0;collapsible=1;marginBottom=0;whiteSpace=wrap;html=1;rounded=0;strokeColor=default;strokeWidth=3;fontFamily=Helvetica;fontSize=12;fontColor=default;fillColor=none;" parent="1" vertex="1">
          <mxGeometry x="-406" y="433" width="250" height="230" as="geometry">
            <mxRectangle x="1270" y="310" width="100" height="30" as="alternateBounds" />
          </mxGeometry>
        </mxCell>
        <mxCell id="sYEwyzhLmwCVJRnSKT3c-40" value="- startingHeart&lt;br&gt;- heartArrangeCount&lt;br&gt;- finalHeart&lt;br&gt;+ LogData&lt;br&gt;+ userTouch&lt;br&gt;+ Difficulty&lt;br&gt;+ Age&lt;br&gt;+ PlayDraw" style="text;strokeColor=none;fillColor=none;align=left;verticalAlign=top;spacingLeft=4;spacingRight=4;overflow=hidden;rotatable=0;points=[[0,0.5],[1,0.5]];portConstraint=eastwest;whiteSpace=wrap;html=1;fontSize=12;fontFamily=Helvetica;fontColor=default;" parent="sYEwyzhLmwCVJRnSKT3c-39" vertex="1">
          <mxGeometry y="26" width="250" height="134" as="geometry" />
        </mxCell>
        <mxCell id="sYEwyzhLmwCVJRnSKT3c-41" value="" style="line;strokeWidth=1;fillColor=none;align=left;verticalAlign=middle;spacingTop=-1;spacingLeft=3;spacingRight=3;rotatable=0;labelPosition=right;points=[];portConstraint=eastwest;strokeColor=inherit;rounded=0;fontFamily=Helvetica;fontSize=12;fontColor=default;html=1;" parent="sYEwyzhLmwCVJRnSKT3c-39" vertex="1">
          <mxGeometry y="160" width="250" height="8" as="geometry" />
        </mxCell>
        <mxCell id="sYEwyzhLmwCVJRnSKT3c-42" value="+ getUserTouch()&lt;br&gt;+ setHeart()&lt;br&gt;+ setCountDraw()&lt;br&gt;" style="text;strokeColor=none;fillColor=none;align=left;verticalAlign=top;spacingLeft=4;spacingRight=4;overflow=hidden;rotatable=0;points=[[0,0.5],[1,0.5]];portConstraint=eastwest;whiteSpace=wrap;html=1;fontSize=12;fontFamily=Helvetica;fontColor=default;" parent="sYEwyzhLmwCVJRnSKT3c-39" vertex="1">
          <mxGeometry y="168" width="250" height="62" as="geometry" />
        </mxCell>
        <mxCell id="bWAUO28OHCuD1AgYh3Je-1" style="edgeStyle=orthogonalEdgeStyle;shape=connector;rounded=0;orthogonalLoop=1;jettySize=auto;html=1;exitX=0.5;exitY=0;exitDx=0;exitDy=0;entryX=0.5;entryY=0;entryDx=0;entryDy=0;labelBackgroundColor=default;strokeColor=default;strokeWidth=3;fontFamily=Helvetica;fontSize=12;fontColor=default;endArrow=none;endFill=0;dashed=1;" parent="1" source="sYEwyzhLmwCVJRnSKT3c-43" target="sYEwyzhLmwCVJRnSKT3c-47" edge="1">
          <mxGeometry relative="1" as="geometry">
            <Array as="points">
              <mxPoint x="-625" y="720" />
              <mxPoint x="38" y="720" />
            </Array>
          </mxGeometry>
        </mxCell>
        <mxCell id="sYEwyzhLmwCVJRnSKT3c-43" value="NpcPolicy" style="swimlane;fontStyle=1;align=center;verticalAlign=top;childLayout=stackLayout;horizontal=1;startSize=26;horizontalStack=0;resizeParent=1;resizeParentMax=0;resizeLast=0;collapsible=1;marginBottom=0;whiteSpace=wrap;html=1;rounded=0;strokeColor=default;strokeWidth=3;fontFamily=Helvetica;fontSize=12;fontColor=default;fillColor=none;" parent="1" vertex="1">
          <mxGeometry x="-750" y="750" width="250" height="240" as="geometry">
            <mxRectangle x="1270" y="310" width="100" height="30" as="alternateBounds" />
          </mxGeometry>
        </mxCell>
        <mxCell id="sYEwyzhLmwCVJRnSKT3c-44" value="- startingHeart&lt;br&gt;- heartArrangeCount&lt;br&gt;- finalHeart&lt;br&gt;- NpcLineList&lt;br&gt;+ cprLogData&lt;br&gt;+ userTouch&lt;br&gt;+ Difficulty&lt;br&gt;+ Age&lt;br&gt;+ cprDraw" style="text;strokeColor=none;fillColor=none;align=left;verticalAlign=top;spacingLeft=4;spacingRight=4;overflow=hidden;rotatable=0;points=[[0,0.5],[1,0.5]];portConstraint=eastwest;whiteSpace=wrap;html=1;fontSize=12;fontFamily=Helvetica;fontColor=default;" parent="sYEwyzhLmwCVJRnSKT3c-43" vertex="1">
          <mxGeometry y="26" width="250" height="134" as="geometry" />
        </mxCell>
        <mxCell id="sYEwyzhLmwCVJRnSKT3c-45" value="" style="line;strokeWidth=1;fillColor=none;align=left;verticalAlign=middle;spacingTop=-1;spacingLeft=3;spacingRight=3;rotatable=0;labelPosition=right;points=[];portConstraint=eastwest;strokeColor=inherit;rounded=0;fontFamily=Helvetica;fontSize=12;fontColor=default;html=1;" parent="sYEwyzhLmwCVJRnSKT3c-43" vertex="1">
          <mxGeometry y="160" width="250" height="8" as="geometry" />
        </mxCell>
        <mxCell id="sYEwyzhLmwCVJRnSKT3c-46" value="+ getNpcUserTouch()&lt;br&gt;+ setNpcHeart()&lt;br&gt;- setNpcLine()&lt;br&gt;+ setNpcCountDraw()" style="text;strokeColor=none;fillColor=none;align=left;verticalAlign=top;spacingLeft=4;spacingRight=4;overflow=hidden;rotatable=0;points=[[0,0.5],[1,0.5]];portConstraint=eastwest;whiteSpace=wrap;html=1;fontSize=12;fontFamily=Helvetica;fontColor=default;" parent="sYEwyzhLmwCVJRnSKT3c-43" vertex="1">
          <mxGeometry y="168" width="250" height="72" as="geometry" />
        </mxCell>
        <mxCell id="sYEwyzhLmwCVJRnSKT3c-47" value="VentilPolicy" style="swimlane;fontStyle=1;align=center;verticalAlign=top;childLayout=stackLayout;horizontal=1;startSize=26;horizontalStack=0;resizeParent=1;resizeParentMax=0;resizeLast=0;collapsible=1;marginBottom=0;whiteSpace=wrap;html=1;rounded=0;strokeColor=default;strokeWidth=3;fontFamily=Helvetica;fontSize=12;fontColor=default;fillColor=none;" parent="1" vertex="1">
          <mxGeometry x="-87" y="755" width="250" height="210" as="geometry">
            <mxRectangle x="1270" y="310" width="100" height="30" as="alternateBounds" />
          </mxGeometry>
        </mxCell>
        <mxCell id="sYEwyzhLmwCVJRnSKT3c-48" value="- startingHeart&lt;br&gt;- heartArrangeCount&lt;br&gt;- finalHeart&lt;br&gt;+ ventilLogData&lt;br&gt;+ userTouch&lt;br&gt;+ Difficulty&lt;br&gt;+ Age&lt;br&gt;+ ventilDraw" style="text;strokeColor=none;fillColor=none;align=left;verticalAlign=top;spacingLeft=4;spacingRight=4;overflow=hidden;rotatable=0;points=[[0,0.5],[1,0.5]];portConstraint=eastwest;whiteSpace=wrap;html=1;fontSize=12;fontFamily=Helvetica;fontColor=default;" parent="sYEwyzhLmwCVJRnSKT3c-47" vertex="1">
          <mxGeometry y="26" width="250" height="124" as="geometry" />
        </mxCell>
        <mxCell id="sYEwyzhLmwCVJRnSKT3c-49" value="" style="line;strokeWidth=1;fillColor=none;align=left;verticalAlign=middle;spacingTop=-1;spacingLeft=3;spacingRight=3;rotatable=0;labelPosition=right;points=[];portConstraint=eastwest;strokeColor=inherit;rounded=0;fontFamily=Helvetica;fontSize=12;fontColor=default;html=1;" parent="sYEwyzhLmwCVJRnSKT3c-47" vertex="1">
          <mxGeometry y="150" width="250" height="8" as="geometry" />
        </mxCell>
        <mxCell id="sYEwyzhLmwCVJRnSKT3c-50" value="+ getVentilUserTouch()&lt;br&gt;+ setVentilHeart()&lt;br&gt;+ setVentilCountDraw()" style="text;strokeColor=none;fillColor=none;align=left;verticalAlign=top;spacingLeft=4;spacingRight=4;overflow=hidden;rotatable=0;points=[[0,0.5],[1,0.5]];portConstraint=eastwest;whiteSpace=wrap;html=1;fontSize=12;fontFamily=Helvetica;fontColor=default;" parent="sYEwyzhLmwCVJRnSKT3c-47" vertex="1">
          <mxGeometry y="158" width="250" height="52" as="geometry" />
        </mxCell>
        <mxCell id="sYEwyzhLmwCVJRnSKT3c-54" value="&amp;lt;&amp;lt;EndingPolicy&amp;gt;&amp;gt;" style="swimlane;fontStyle=1;align=center;verticalAlign=top;childLayout=stackLayout;horizontal=1;startSize=26;horizontalStack=0;resizeParent=1;resizeParentMax=0;resizeLast=0;collapsible=1;marginBottom=0;whiteSpace=wrap;html=1;rounded=0;strokeColor=default;strokeWidth=3;fontFamily=Helvetica;fontSize=12;fontColor=default;fillColor=none;" parent="1" vertex="1">
          <mxGeometry x="323" y="433" width="250" height="230" as="geometry">
            <mxRectangle x="1270" y="310" width="100" height="30" as="alternateBounds" />
          </mxGeometry>
        </mxCell>
        <mxCell id="sYEwyzhLmwCVJRnSKT3c-55" value="- startingHeart&lt;br&gt;- heartArrangeCount&lt;br&gt;- finalHeart&lt;br&gt;+ LogData&lt;br&gt;+ userTouch&lt;br&gt;+ Difficulty&lt;br&gt;+ Age" style="text;strokeColor=none;fillColor=none;align=left;verticalAlign=top;spacingLeft=4;spacingRight=4;overflow=hidden;rotatable=0;points=[[0,0.5],[1,0.5]];portConstraint=eastwest;whiteSpace=wrap;html=1;fontSize=12;fontFamily=Helvetica;fontColor=default;" parent="sYEwyzhLmwCVJRnSKT3c-54" vertex="1">
          <mxGeometry y="26" width="250" height="134" as="geometry" />
        </mxCell>
        <mxCell id="sYEwyzhLmwCVJRnSKT3c-56" value="" style="line;strokeWidth=1;fillColor=none;align=left;verticalAlign=middle;spacingTop=-1;spacingLeft=3;spacingRight=3;rotatable=0;labelPosition=right;points=[];portConstraint=eastwest;strokeColor=inherit;rounded=0;fontFamily=Helvetica;fontSize=12;fontColor=default;html=1;" parent="sYEwyzhLmwCVJRnSKT3c-54" vertex="1">
          <mxGeometry y="160" width="250" height="8" as="geometry" />
        </mxCell>
        <mxCell id="sYEwyzhLmwCVJRnSKT3c-57" value="+ getGoodOrBad()&lt;br&gt;+ getHeart()&lt;br&gt;+ setEndingLog()" style="text;strokeColor=none;fillColor=none;align=left;verticalAlign=top;spacingLeft=4;spacingRight=4;overflow=hidden;rotatable=0;points=[[0,0.5],[1,0.5]];portConstraint=eastwest;whiteSpace=wrap;html=1;fontSize=12;fontFamily=Helvetica;fontColor=default;" parent="sYEwyzhLmwCVJRnSKT3c-54" vertex="1">
          <mxGeometry y="168" width="250" height="62" as="geometry" />
        </mxCell>
        <mxCell id="sYEwyzhLmwCVJRnSKT3c-58" style="edgeStyle=orthogonalEdgeStyle;shape=connector;rounded=0;orthogonalLoop=1;jettySize=auto;html=1;exitX=1;exitY=0.5;exitDx=0;exitDy=0;entryX=0;entryY=0.5;entryDx=0;entryDy=0;labelBackgroundColor=default;strokeColor=default;strokeWidth=3;fontFamily=Helvetica;fontSize=12;fontColor=default;endArrow=none;endFill=0;" parent="1" source="sYEwyzhLmwCVJRnSKT3c-40" target="sYEwyzhLmwCVJRnSKT3c-55" edge="1">
          <mxGeometry relative="1" as="geometry" />
        </mxCell>
        <mxCell id="sYEwyzhLmwCVJRnSKT3c-59" value="1" style="edgeLabel;html=1;align=center;verticalAlign=middle;resizable=0;points=[];fontSize=12;fontFamily=Helvetica;fontColor=default;" parent="sYEwyzhLmwCVJRnSKT3c-58" vertex="1" connectable="0">
          <mxGeometry x="-0.9013" y="-1" relative="1" as="geometry">
            <mxPoint as="offset" />
          </mxGeometry>
        </mxCell>
        <mxCell id="sYEwyzhLmwCVJRnSKT3c-60" value="1" style="edgeLabel;html=1;align=center;verticalAlign=middle;resizable=0;points=[];fontSize=12;fontFamily=Helvetica;fontColor=default;" parent="sYEwyzhLmwCVJRnSKT3c-58" vertex="1" connectable="0">
          <mxGeometry x="0.8804" y="-2" relative="1" as="geometry">
            <mxPoint as="offset" />
          </mxGeometry>
        </mxCell>
        <mxCell id="sYEwyzhLmwCVJRnSKT3c-61" style="edgeStyle=orthogonalEdgeStyle;shape=connector;rounded=0;orthogonalLoop=1;jettySize=auto;html=1;exitX=1;exitY=0.5;exitDx=0;exitDy=0;entryX=0;entryY=0.5;entryDx=0;entryDy=0;labelBackgroundColor=default;strokeColor=default;strokeWidth=3;fontFamily=Helvetica;fontSize=12;fontColor=default;endArrow=ERone;endFill=0;startArrow=ERone;startFill=0;" parent="1" source="sYEwyzhLmwCVJRnSKT3c-44" target="sYEwyzhLmwCVJRnSKT3c-36" edge="1">
          <mxGeometry relative="1" as="geometry" />
        </mxCell>
        <mxCell id="sYEwyzhLmwCVJRnSKT3c-62" style="edgeStyle=orthogonalEdgeStyle;shape=connector;rounded=0;orthogonalLoop=1;jettySize=auto;html=1;exitX=1;exitY=0.5;exitDx=0;exitDy=0;entryX=0;entryY=0.5;entryDx=0;entryDy=0;labelBackgroundColor=default;strokeColor=default;strokeWidth=3;fontFamily=Helvetica;fontSize=12;fontColor=default;endArrow=ERone;endFill=0;startArrow=ERone;startFill=0;" parent="1" source="sYEwyzhLmwCVJRnSKT3c-36" target="sYEwyzhLmwCVJRnSKT3c-48" edge="1">
          <mxGeometry relative="1" as="geometry" />
        </mxCell>
        <mxCell id="bWAUO28OHCuD1AgYh3Je-6" style="shape=connector;rounded=0;orthogonalLoop=1;jettySize=auto;html=1;exitX=0.5;exitY=0;exitDx=0;exitDy=0;labelBackgroundColor=default;strokeColor=default;strokeWidth=3;fontFamily=Helvetica;fontSize=12;fontColor=default;endArrow=block;dashed=1;endFill=0;" parent="1" source="bWAUO28OHCuD1AgYh3Je-2" target="sYEwyzhLmwCVJRnSKT3c-57" edge="1">
          <mxGeometry relative="1" as="geometry" />
        </mxCell>
        <mxCell id="bWAUO28OHCuD1AgYh3Je-2" value="Ending" style="swimlane;fontStyle=1;align=center;verticalAlign=top;childLayout=stackLayout;horizontal=1;startSize=26;horizontalStack=0;resizeParent=1;resizeParentMax=0;resizeLast=0;collapsible=1;marginBottom=0;whiteSpace=wrap;html=1;rounded=0;strokeColor=default;strokeWidth=3;fontFamily=Helvetica;fontSize=12;fontColor=default;fillColor=none;" parent="1" vertex="1">
          <mxGeometry x="323" y="760" width="250" height="230" as="geometry">
            <mxRectangle x="1270" y="310" width="100" height="30" as="alternateBounds" />
          </mxGeometry>
        </mxCell>
        <mxCell id="bWAUO28OHCuD1AgYh3Je-3" value="- startingHeart&lt;br&gt;- heartArrangeCount&lt;br&gt;- finalHeart&lt;br&gt;+ LogData&lt;br&gt;+ userTouch&lt;br&gt;+ Difficulty&lt;br&gt;+ Age" style="text;strokeColor=none;fillColor=none;align=left;verticalAlign=top;spacingLeft=4;spacingRight=4;overflow=hidden;rotatable=0;points=[[0,0.5],[1,0.5]];portConstraint=eastwest;whiteSpace=wrap;html=1;fontSize=12;fontFamily=Helvetica;fontColor=default;" parent="bWAUO28OHCuD1AgYh3Je-2" vertex="1">
          <mxGeometry y="26" width="250" height="134" as="geometry" />
        </mxCell>
        <mxCell id="bWAUO28OHCuD1AgYh3Je-4" value="" style="line;strokeWidth=1;fillColor=none;align=left;verticalAlign=middle;spacingTop=-1;spacingLeft=3;spacingRight=3;rotatable=0;labelPosition=right;points=[];portConstraint=eastwest;strokeColor=inherit;rounded=0;fontFamily=Helvetica;fontSize=12;fontColor=default;html=1;" parent="bWAUO28OHCuD1AgYh3Je-2" vertex="1">
          <mxGeometry y="160" width="250" height="8" as="geometry" />
        </mxCell>
        <mxCell id="bWAUO28OHCuD1AgYh3Je-5" value="+ getGoodOrBad()&lt;br&gt;+ getHeart()&lt;br&gt;+ setEndingLog()" style="text;strokeColor=none;fillColor=none;align=left;verticalAlign=top;spacingLeft=4;spacingRight=4;overflow=hidden;rotatable=0;points=[[0,0.5],[1,0.5]];portConstraint=eastwest;whiteSpace=wrap;html=1;fontSize=12;fontFamily=Helvetica;fontColor=default;" parent="bWAUO28OHCuD1AgYh3Je-2" vertex="1">
          <mxGeometry y="168" width="250" height="62" as="geometry" />
        </mxCell>
        <mxCell id="bWAUO28OHCuD1AgYh3Je-7" value="&amp;lt;&amp;lt;UnityEngineDeploy&amp;gt;&amp;gt;" style="swimlane;fontStyle=1;align=center;verticalAlign=top;childLayout=stackLayout;horizontal=1;startSize=26;horizontalStack=0;resizeParent=1;resizeParentMax=0;resizeLast=0;collapsible=1;marginBottom=0;whiteSpace=wrap;html=1;rounded=0;strokeColor=default;strokeWidth=3;fontFamily=Helvetica;fontSize=12;fontColor=default;fillColor=none;" parent="1" vertex="1">
          <mxGeometry x="340" y="-1050" width="250" height="280" as="geometry">
            <mxRectangle x="1270" y="310" width="100" height="30" as="alternateBounds" />
          </mxGeometry>
        </mxCell>
        <mxCell id="bWAUO28OHCuD1AgYh3Je-8" value="- Sensitivity&lt;br&gt;# EngineExcessToken&lt;br&gt;- DiviceSize&lt;br&gt;- DiviceDefaultSound&lt;br&gt;- DiviceStorage&lt;br&gt;+ PlayCash&amp;nbsp;&lt;br&gt;+ DeviceMaxGraphic&lt;br&gt;+ UnityMovingSource&lt;br&gt;+ UnitySoundSource&lt;br&gt;+ UnityGraphicSource" style="text;strokeColor=none;fillColor=none;align=left;verticalAlign=top;spacingLeft=4;spacingRight=4;overflow=hidden;rotatable=0;points=[[0,0.5],[1,0.5]];portConstraint=eastwest;whiteSpace=wrap;html=1;fontSize=12;fontFamily=Helvetica;fontColor=default;" parent="bWAUO28OHCuD1AgYh3Je-7" vertex="1">
          <mxGeometry y="26" width="250" height="154" as="geometry" />
        </mxCell>
        <mxCell id="bWAUO28OHCuD1AgYh3Je-9" value="" style="line;strokeWidth=1;fillColor=none;align=left;verticalAlign=middle;spacingTop=-1;spacingLeft=3;spacingRight=3;rotatable=0;labelPosition=right;points=[];portConstraint=eastwest;strokeColor=inherit;rounded=0;fontFamily=Helvetica;fontSize=12;fontColor=default;html=1;" parent="bWAUO28OHCuD1AgYh3Je-7" vertex="1">
          <mxGeometry y="180" width="250" height="8" as="geometry" />
        </mxCell>
        <mxCell id="bWAUO28OHCuD1AgYh3Je-10" value="+ getMaxPreprom()&lt;br&gt;+ setDeviceGraphic()&lt;br&gt;+ setDeviceSound()&lt;br&gt;+ getPlayCash()&lt;br&gt;+ setPlayCash()" style="text;strokeColor=none;fillColor=none;align=left;verticalAlign=top;spacingLeft=4;spacingRight=4;overflow=hidden;rotatable=0;points=[[0,0.5],[1,0.5]];portConstraint=eastwest;whiteSpace=wrap;html=1;fontSize=12;fontFamily=Helvetica;fontColor=default;" parent="bWAUO28OHCuD1AgYh3Je-7" vertex="1">
          <mxGeometry y="188" width="250" height="92" as="geometry" />
        </mxCell>
        <mxCell id="D3WIe9RIHGnLOvGYux2O-1" style="edgeStyle=orthogonalEdgeStyle;rounded=0;orthogonalLoop=1;jettySize=auto;html=1;exitX=0.5;exitY=0;exitDx=0;exitDy=0;entryX=0.5;entryY=1;entryDx=0;entryDy=0;strokeWidth=3;endArrow=block;endFill=0;dashed=1;" parent="1" source="ReJ-yDnO0Ujcpc7Zb9AQ-5" target="bWAUO28OHCuD1AgYh3Je-7" edge="1">
          <mxGeometry relative="1" as="geometry" />
        </mxCell>
        <mxCell id="ReJ-yDnO0Ujcpc7Zb9AQ-5" value="localEngineStorage" style="swimlane;fontStyle=1;align=center;verticalAlign=top;childLayout=stackLayout;horizontal=1;startSize=26;horizontalStack=0;resizeParent=1;resizeParentMax=0;resizeLast=0;collapsible=1;marginBottom=0;whiteSpace=wrap;html=1;rounded=0;strokeColor=default;strokeWidth=3;fontFamily=Helvetica;fontSize=12;fontColor=default;fillColor=none;" parent="1" vertex="1">
          <mxGeometry x="340" y="-690" width="250" height="280" as="geometry">
            <mxRectangle x="1270" y="310" width="100" height="30" as="alternateBounds" />
          </mxGeometry>
        </mxCell>
        <mxCell id="ReJ-yDnO0Ujcpc7Zb9AQ-6" value="- Sensitivity&lt;br&gt;# EngineExcessToken&lt;br&gt;- DiviceSize&lt;br&gt;- DiviceDefaultSound&lt;br&gt;- DiviceStorage&lt;br&gt;+ PlayCash&amp;nbsp;&lt;br&gt;+ DeviceMaxGraphic&lt;br&gt;+ UnityMovingSource&lt;br&gt;+ UnitySoundSource&lt;br&gt;+ UnityGraphicSource" style="text;strokeColor=none;fillColor=none;align=left;verticalAlign=top;spacingLeft=4;spacingRight=4;overflow=hidden;rotatable=0;points=[[0,0.5],[1,0.5]];portConstraint=eastwest;whiteSpace=wrap;html=1;fontSize=12;fontFamily=Helvetica;fontColor=default;" parent="ReJ-yDnO0Ujcpc7Zb9AQ-5" vertex="1">
          <mxGeometry y="26" width="250" height="154" as="geometry" />
        </mxCell>
        <mxCell id="ReJ-yDnO0Ujcpc7Zb9AQ-7" value="" style="line;strokeWidth=1;fillColor=none;align=left;verticalAlign=middle;spacingTop=-1;spacingLeft=3;spacingRight=3;rotatable=0;labelPosition=right;points=[];portConstraint=eastwest;strokeColor=inherit;rounded=0;fontFamily=Helvetica;fontSize=12;fontColor=default;html=1;" parent="ReJ-yDnO0Ujcpc7Zb9AQ-5" vertex="1">
          <mxGeometry y="180" width="250" height="8" as="geometry" />
        </mxCell>
        <mxCell id="ReJ-yDnO0Ujcpc7Zb9AQ-8" value="+ getLocalMaxPreprom()&lt;br&gt;+ setDeviceGraphic()&lt;br&gt;+ setDeviceSound()&lt;br&gt;+ getPlayCash()&lt;br&gt;+ setPlayCash()" style="text;strokeColor=none;fillColor=none;align=left;verticalAlign=top;spacingLeft=4;spacingRight=4;overflow=hidden;rotatable=0;points=[[0,0.5],[1,0.5]];portConstraint=eastwest;whiteSpace=wrap;html=1;fontSize=12;fontFamily=Helvetica;fontColor=default;" parent="ReJ-yDnO0Ujcpc7Zb9AQ-5" vertex="1">
          <mxGeometry y="188" width="250" height="92" as="geometry" />
        </mxCell>
        <mxCell id="D3WIe9RIHGnLOvGYux2O-24" style="edgeStyle=orthogonalEdgeStyle;rounded=0;orthogonalLoop=1;jettySize=auto;html=1;exitX=0.552;exitY=0.997;exitDx=0;exitDy=0;strokeWidth=3;endArrow=openThin;endFill=0;dashed=1;entryX=0.5;entryY=0;entryDx=0;entryDy=0;exitPerimeter=0;" parent="1" source="D3WIe9RIHGnLOvGYux2O-10" target="D3WIe9RIHGnLOvGYux2O-26" edge="1">
          <mxGeometry relative="1" as="geometry">
            <mxPoint x="90.05882352941171" y="-834" as="targetPoint" />
            <Array as="points">
              <mxPoint x="94" y="-414" />
              <mxPoint x="90" y="-414" />
            </Array>
          </mxGeometry>
        </mxCell>
        <mxCell id="D3WIe9RIHGnLOvGYux2O-25" value="&lt;font style=&quot;font-size: 19px;&quot;&gt;생성&lt;/font&gt;" style="edgeLabel;html=1;align=center;verticalAlign=middle;resizable=0;points=[];" parent="D3WIe9RIHGnLOvGYux2O-24" vertex="1" connectable="0">
          <mxGeometry x="0.1377" y="-2" relative="1" as="geometry">
            <mxPoint as="offset" />
          </mxGeometry>
        </mxCell>
        <mxCell id="D3WIe9RIHGnLOvGYux2O-3" value="UserSetting" style="swimlane;fontStyle=1;align=center;verticalAlign=top;childLayout=stackLayout;horizontal=1;startSize=26;horizontalStack=0;resizeParent=1;resizeParentMax=0;resizeLast=0;collapsible=1;marginBottom=0;whiteSpace=wrap;html=1;rounded=0;strokeColor=default;strokeWidth=3;fontFamily=Helvetica;fontSize=12;fontColor=default;fillColor=none;" parent="1" vertex="1">
          <mxGeometry x="-380" y="-617" width="240" height="190" as="geometry">
            <mxRectangle x="1270" y="310" width="100" height="30" as="alternateBounds" />
          </mxGeometry>
        </mxCell>
        <mxCell id="D3WIe9RIHGnLOvGYux2O-4" value="# Age&lt;br&gt;# Stage&lt;br&gt;# difficulty&lt;br&gt;- localDateTime&lt;br&gt;- PlayDraw" style="text;strokeColor=none;fillColor=none;align=left;verticalAlign=top;spacingLeft=4;spacingRight=4;overflow=hidden;rotatable=0;points=[[0,0.5],[1,0.5]];portConstraint=eastwest;whiteSpace=wrap;html=1;fontSize=12;fontFamily=Helvetica;fontColor=default;" parent="D3WIe9RIHGnLOvGYux2O-3" vertex="1">
          <mxGeometry y="26" width="240" height="84" as="geometry" />
        </mxCell>
        <mxCell id="D3WIe9RIHGnLOvGYux2O-5" value="" style="line;strokeWidth=1;fillColor=none;align=left;verticalAlign=middle;spacingTop=-1;spacingLeft=3;spacingRight=3;rotatable=0;labelPosition=right;points=[];portConstraint=eastwest;strokeColor=inherit;rounded=0;fontFamily=Helvetica;fontSize=12;fontColor=default;html=1;" parent="D3WIe9RIHGnLOvGYux2O-3" vertex="1">
          <mxGeometry y="110" width="240" height="8" as="geometry" />
        </mxCell>
        <mxCell id="D3WIe9RIHGnLOvGYux2O-6" value="+ getAge()&lt;br&gt;+ getStage()&lt;br&gt;+ getDifficulty()&lt;br&gt;+ getPlayDraw()" style="text;strokeColor=none;fillColor=none;align=left;verticalAlign=top;spacingLeft=4;spacingRight=4;overflow=hidden;rotatable=0;points=[[0,0.5],[1,0.5]];portConstraint=eastwest;whiteSpace=wrap;html=1;fontSize=12;fontFamily=Helvetica;fontColor=default;" parent="D3WIe9RIHGnLOvGYux2O-3" vertex="1">
          <mxGeometry y="118" width="240" height="72" as="geometry" />
        </mxCell>
        <mxCell id="D3WIe9RIHGnLOvGYux2O-7" value="AppConfig" style="swimlane;fontStyle=1;align=center;verticalAlign=top;childLayout=stackLayout;horizontal=1;startSize=26;horizontalStack=0;resizeParent=1;resizeParentMax=0;resizeLast=0;collapsible=1;marginBottom=0;whiteSpace=wrap;html=1;rounded=0;strokeColor=default;strokeWidth=3;fontFamily=Helvetica;fontSize=12;fontColor=default;fillColor=none;" parent="1" vertex="1">
          <mxGeometry x="-20" y="-664" width="200" height="250" as="geometry">
            <mxRectangle x="1270" y="310" width="100" height="30" as="alternateBounds" />
          </mxGeometry>
        </mxCell>
        <mxCell id="D3WIe9RIHGnLOvGYux2O-8" value="# Age&lt;br&gt;# Stage&lt;br&gt;# difficulty&lt;br&gt;- localDateTime&lt;br&gt;- PlayDraw" style="text;strokeColor=none;fillColor=none;align=left;verticalAlign=top;spacingLeft=4;spacingRight=4;overflow=hidden;rotatable=0;points=[[0,0.5],[1,0.5]];portConstraint=eastwest;whiteSpace=wrap;html=1;fontSize=12;fontFamily=Helvetica;fontColor=default;" parent="D3WIe9RIHGnLOvGYux2O-7" vertex="1">
          <mxGeometry y="26" width="200" height="84" as="geometry" />
        </mxCell>
        <mxCell id="D3WIe9RIHGnLOvGYux2O-9" value="" style="line;strokeWidth=1;fillColor=none;align=left;verticalAlign=middle;spacingTop=-1;spacingLeft=3;spacingRight=3;rotatable=0;labelPosition=right;points=[];portConstraint=eastwest;strokeColor=inherit;rounded=0;fontFamily=Helvetica;fontSize=12;fontColor=default;html=1;" parent="D3WIe9RIHGnLOvGYux2O-7" vertex="1">
          <mxGeometry y="110" width="200" height="8" as="geometry" />
        </mxCell>
        <mxCell id="D3WIe9RIHGnLOvGYux2O-10" value="+ getAge()&lt;br&gt;+ setAge()&lt;br&gt;+ getStage()&lt;br&gt;+ setStage()&lt;br&gt;+ getDifficulty()&lt;br&gt;+ setDifficulty()&lt;br&gt;+ getPlayDraw()&lt;br&gt;+ setPlayDraw()" style="text;strokeColor=none;fillColor=none;align=left;verticalAlign=top;spacingLeft=4;spacingRight=4;overflow=hidden;rotatable=0;points=[[0,0.5],[1,0.5]];portConstraint=eastwest;whiteSpace=wrap;html=1;fontSize=12;fontFamily=Helvetica;fontColor=default;" parent="D3WIe9RIHGnLOvGYux2O-7" vertex="1">
          <mxGeometry y="118" width="200" height="132" as="geometry" />
        </mxCell>
        <mxCell id="D3WIe9RIHGnLOvGYux2O-14" value="PlayRepository" style="swimlane;fontStyle=1;align=center;verticalAlign=top;childLayout=stackLayout;horizontal=1;startSize=26;horizontalStack=0;resizeParent=1;resizeParentMax=0;resizeLast=0;collapsible=1;marginBottom=0;whiteSpace=wrap;html=1;rounded=0;strokeColor=default;strokeWidth=3;fontFamily=Helvetica;fontSize=12;fontColor=default;fillColor=none;" parent="1" vertex="1">
          <mxGeometry x="770" y="730" width="250" height="300" as="geometry">
            <mxRectangle x="1270" y="310" width="100" height="30" as="alternateBounds" />
          </mxGeometry>
        </mxCell>
        <mxCell id="D3WIe9RIHGnLOvGYux2O-15" value="# Age&lt;br&gt;# Stage&lt;br&gt;# difficulty&lt;br&gt;- localDateTime&lt;br&gt;- PlayDraw" style="text;strokeColor=none;fillColor=none;align=left;verticalAlign=top;spacingLeft=4;spacingRight=4;overflow=hidden;rotatable=0;points=[[0,0.5],[1,0.5]];portConstraint=eastwest;whiteSpace=wrap;html=1;fontSize=12;fontFamily=Helvetica;fontColor=default;" parent="D3WIe9RIHGnLOvGYux2O-14" vertex="1">
          <mxGeometry y="26" width="250" height="84" as="geometry" />
        </mxCell>
        <mxCell id="D3WIe9RIHGnLOvGYux2O-16" value="" style="line;strokeWidth=1;fillColor=none;align=left;verticalAlign=middle;spacingTop=-1;spacingLeft=3;spacingRight=3;rotatable=0;labelPosition=right;points=[];portConstraint=eastwest;strokeColor=inherit;rounded=0;fontFamily=Helvetica;fontSize=12;fontColor=default;html=1;" parent="D3WIe9RIHGnLOvGYux2O-14" vertex="1">
          <mxGeometry y="110" width="250" height="8" as="geometry" />
        </mxCell>
        <mxCell id="D3WIe9RIHGnLOvGYux2O-17" value="- startingHeart&lt;br style=&quot;border-color: var(--border-color);&quot;&gt;- heartArrangeCount&lt;br style=&quot;border-color: var(--border-color);&quot;&gt;- finalHeart&lt;br style=&quot;border-color: var(--border-color);&quot;&gt;+ LogData&lt;br style=&quot;border-color: var(--border-color);&quot;&gt;+ userTouch&lt;br style=&quot;border-color: var(--border-color);&quot;&gt;+ Difficulty&lt;br style=&quot;border-color: var(--border-color);&quot;&gt;+ Age&lt;br style=&quot;border-color: var(--border-color);&quot;&gt;+ PlayDraw&lt;br&gt;+ getGoodOrBad()&lt;br style=&quot;border-color: var(--border-color);&quot;&gt;+ getHeart()&lt;br style=&quot;border-color: var(--border-color);&quot;&gt;+ setEndingLog()" style="text;strokeColor=none;fillColor=none;align=left;verticalAlign=top;spacingLeft=4;spacingRight=4;overflow=hidden;rotatable=0;points=[[0,0.5],[1,0.5]];portConstraint=eastwest;whiteSpace=wrap;html=1;fontSize=12;fontFamily=Helvetica;fontColor=default;" parent="D3WIe9RIHGnLOvGYux2O-14" vertex="1">
          <mxGeometry y="118" width="250" height="182" as="geometry" />
        </mxCell>
        <mxCell id="D3WIe9RIHGnLOvGYux2O-26" value="ServiceImpl" style="swimlane;fontStyle=1;align=center;verticalAlign=top;childLayout=stackLayout;horizontal=1;startSize=26;horizontalStack=0;resizeParent=1;resizeParentMax=0;resizeLast=0;collapsible=1;marginBottom=0;whiteSpace=wrap;html=1;rounded=0;strokeColor=default;strokeWidth=3;fontFamily=Helvetica;fontSize=12;fontColor=default;fillColor=none;" parent="1" vertex="1">
          <mxGeometry x="-30" y="-300" width="240" height="190" as="geometry">
            <mxRectangle x="1270" y="310" width="100" height="30" as="alternateBounds" />
          </mxGeometry>
        </mxCell>
        <mxCell id="D3WIe9RIHGnLOvGYux2O-27" value="# Age&lt;br&gt;# Stage&lt;br&gt;# difficulty&lt;br&gt;- localDateTime&lt;br&gt;- PlayDraw" style="text;strokeColor=none;fillColor=none;align=left;verticalAlign=top;spacingLeft=4;spacingRight=4;overflow=hidden;rotatable=0;points=[[0,0.5],[1,0.5]];portConstraint=eastwest;whiteSpace=wrap;html=1;fontSize=12;fontFamily=Helvetica;fontColor=default;" parent="D3WIe9RIHGnLOvGYux2O-26" vertex="1">
          <mxGeometry y="26" width="240" height="84" as="geometry" />
        </mxCell>
        <mxCell id="D3WIe9RIHGnLOvGYux2O-28" value="" style="line;strokeWidth=1;fillColor=none;align=left;verticalAlign=middle;spacingTop=-1;spacingLeft=3;spacingRight=3;rotatable=0;labelPosition=right;points=[];portConstraint=eastwest;strokeColor=inherit;rounded=0;fontFamily=Helvetica;fontSize=12;fontColor=default;html=1;" parent="D3WIe9RIHGnLOvGYux2O-26" vertex="1">
          <mxGeometry y="110" width="240" height="8" as="geometry" />
        </mxCell>
        <mxCell id="D3WIe9RIHGnLOvGYux2O-29" value="+ getAge()&lt;br&gt;+ getStage()&lt;br&gt;+ getDifficulty()&lt;br&gt;+ getPlayDraw()" style="text;strokeColor=none;fillColor=none;align=left;verticalAlign=top;spacingLeft=4;spacingRight=4;overflow=hidden;rotatable=0;points=[[0,0.5],[1,0.5]];portConstraint=eastwest;whiteSpace=wrap;html=1;fontSize=12;fontFamily=Helvetica;fontColor=default;" parent="D3WIe9RIHGnLOvGYux2O-26" vertex="1">
          <mxGeometry y="118" width="240" height="72" as="geometry" />
        </mxCell>
        <mxCell id="D3WIe9RIHGnLOvGYux2O-30" value="&amp;lt;&amp;lt;qServiceGame&amp;gt;&amp;gt;" style="swimlane;fontStyle=1;align=center;verticalAlign=top;childLayout=stackLayout;horizontal=1;startSize=26;horizontalStack=0;resizeParent=1;resizeParentMax=0;resizeLast=0;collapsible=1;marginBottom=0;whiteSpace=wrap;html=1;rounded=0;strokeColor=default;strokeWidth=3;fontFamily=Helvetica;fontSize=12;fontColor=default;fillColor=none;" parent="1" vertex="1">
          <mxGeometry x="-30" y="10" width="250" height="300" as="geometry">
            <mxRectangle x="1270" y="310" width="100" height="30" as="alternateBounds" />
          </mxGeometry>
        </mxCell>
        <mxCell id="D3WIe9RIHGnLOvGYux2O-31" value="- startingHeart&lt;br&gt;- heartArrangeCount&lt;br&gt;- finalHeart&lt;br&gt;+ LogData&lt;br&gt;+ userTouch&lt;br&gt;+ Difficulty&lt;br&gt;+ Age&lt;br&gt;+ PlayDraw" style="text;strokeColor=none;fillColor=none;align=left;verticalAlign=top;spacingLeft=4;spacingRight=4;overflow=hidden;rotatable=0;points=[[0,0.5],[1,0.5]];portConstraint=eastwest;whiteSpace=wrap;html=1;fontSize=12;fontFamily=Helvetica;fontColor=default;" parent="D3WIe9RIHGnLOvGYux2O-30" vertex="1">
          <mxGeometry y="26" width="250" height="134" as="geometry" />
        </mxCell>
        <mxCell id="D3WIe9RIHGnLOvGYux2O-32" value="" style="line;strokeWidth=1;fillColor=none;align=left;verticalAlign=middle;spacingTop=-1;spacingLeft=3;spacingRight=3;rotatable=0;labelPosition=right;points=[];portConstraint=eastwest;strokeColor=inherit;rounded=0;fontFamily=Helvetica;fontSize=12;fontColor=default;html=1;" parent="D3WIe9RIHGnLOvGYux2O-30" vertex="1">
          <mxGeometry y="160" width="250" height="8" as="geometry" />
        </mxCell>
        <mxCell id="D3WIe9RIHGnLOvGYux2O-33" value="+ setHeart()&lt;br&gt;+ getHeart()&lt;br&gt;+ setCountDraw()&lt;br&gt;+ getUserTouch()&lt;br&gt;+ getGoodOrBad()&lt;br style=&quot;border-color: var(--border-color);&quot;&gt;+ getHeart()&lt;br style=&quot;border-color: var(--border-color);&quot;&gt;+ setEndingLog()&lt;br&gt;+ getEndingLog()" style="text;strokeColor=none;fillColor=none;align=left;verticalAlign=top;spacingLeft=4;spacingRight=4;overflow=hidden;rotatable=0;points=[[0,0.5],[1,0.5]];portConstraint=eastwest;whiteSpace=wrap;html=1;fontSize=12;fontFamily=Helvetica;fontColor=default;" parent="D3WIe9RIHGnLOvGYux2O-30" vertex="1">
          <mxGeometry y="168" width="250" height="132" as="geometry" />
        </mxCell>
        <mxCell id="D3WIe9RIHGnLOvGYux2O-35" style="edgeStyle=orthogonalEdgeStyle;shape=connector;rounded=0;orthogonalLoop=1;jettySize=auto;html=1;entryX=0.494;entryY=0.995;entryDx=0;entryDy=0;labelBackgroundColor=default;strokeColor=default;strokeWidth=3;fontFamily=Helvetica;fontSize=12;fontColor=default;endArrow=block;dashed=1;endFill=0;entryPerimeter=0;" parent="1" target="D3WIe9RIHGnLOvGYux2O-33" edge="1">
          <mxGeometry relative="1" as="geometry">
            <mxPoint x="94" y="380" as="sourcePoint" />
            <mxPoint x="-271" y="790" as="targetPoint" />
          </mxGeometry>
        </mxCell>
        <mxCell id="D3WIe9RIHGnLOvGYux2O-36" style="shape=connector;rounded=0;orthogonalLoop=1;jettySize=auto;html=1;entryX=0.5;entryY=0;entryDx=0;entryDy=0;labelBackgroundColor=default;strokeColor=default;strokeWidth=3;fontFamily=Helvetica;fontSize=12;fontColor=default;endArrow=block;dashed=1;endFill=0;exitX=0.52;exitY=1.013;exitDx=0;exitDy=0;exitPerimeter=0;" parent="1" source="D3WIe9RIHGnLOvGYux2O-29" target="D3WIe9RIHGnLOvGYux2O-30" edge="1">
          <mxGeometry relative="1" as="geometry">
            <mxPoint x="230" y="196" as="sourcePoint" />
            <mxPoint x="104" y="455" as="targetPoint" />
          </mxGeometry>
        </mxCell>
        <mxCell id="D3WIe9RIHGnLOvGYux2O-37" style="edgeStyle=orthogonalEdgeStyle;rounded=0;orthogonalLoop=1;jettySize=auto;html=1;exitX=0.996;exitY=1.046;exitDx=0;exitDy=0;strokeWidth=3;entryX=0;entryY=0.5;entryDx=0;entryDy=0;exitPerimeter=0;dashed=1;" parent="1" source="D3WIe9RIHGnLOvGYux2O-8" target="ReJ-yDnO0Ujcpc7Zb9AQ-5" edge="1">
          <mxGeometry relative="1" as="geometry">
            <mxPoint x="410" y="-174" as="targetPoint" />
          </mxGeometry>
        </mxCell>
        <mxCell id="D3WIe9RIHGnLOvGYux2O-38" value="&lt;font style=&quot;font-size: 19px;&quot;&gt;생성&lt;/font&gt;" style="edgeLabel;html=1;align=center;verticalAlign=middle;resizable=0;points=[];" parent="D3WIe9RIHGnLOvGYux2O-37" vertex="1" connectable="0">
          <mxGeometry x="-0.1382" y="2" relative="1" as="geometry">
            <mxPoint x="11" y="2" as="offset" />
          </mxGeometry>
        </mxCell>
        <mxCell id="D3WIe9RIHGnLOvGYux2O-39" style="edgeStyle=orthogonalEdgeStyle;rounded=0;orthogonalLoop=1;jettySize=auto;html=1;exitX=1;exitY=0.5;exitDx=0;exitDy=0;strokeWidth=3;" parent="1" source="D3WIe9RIHGnLOvGYux2O-27" edge="1">
          <mxGeometry relative="1" as="geometry">
            <mxPoint x="590" y="-960" as="targetPoint" />
            <Array as="points">
              <mxPoint x="210" y="-174" />
              <mxPoint x="670" y="-174" />
              <mxPoint x="670" y="-960" />
            </Array>
          </mxGeometry>
        </mxCell>
        <mxCell id="D3WIe9RIHGnLOvGYux2O-40" style="edgeStyle=orthogonalEdgeStyle;rounded=0;orthogonalLoop=1;jettySize=auto;html=1;exitX=1;exitY=0.5;exitDx=0;exitDy=0;entryX=0.002;entryY=0.028;entryDx=0;entryDy=0;entryPerimeter=0;strokeWidth=3;dashed=1;endArrow=open;endFill=0;" parent="1" source="bWAUO28OHCuD1AgYh3Je-3" target="D3WIe9RIHGnLOvGYux2O-17" edge="1">
          <mxGeometry relative="1" as="geometry" />
        </mxCell>
        <mxCell id="D3WIe9RIHGnLOvGYux2O-41" value="&lt;font style=&quot;font-size: 19px;&quot;&gt;&lt;b&gt;생성&lt;/b&gt;&lt;/font&gt;" style="edgeLabel;html=1;align=center;verticalAlign=middle;resizable=0;points=[];" parent="D3WIe9RIHGnLOvGYux2O-40" vertex="1" connectable="0">
          <mxGeometry x="-0.0124" relative="1" as="geometry">
            <mxPoint as="offset" />
          </mxGeometry>
        </mxCell>
        <mxCell id="D3WIe9RIHGnLOvGYux2O-42" style="edgeStyle=orthogonalEdgeStyle;rounded=0;orthogonalLoop=1;jettySize=auto;html=1;exitX=1;exitY=0.5;exitDx=0;exitDy=0;entryX=0.009;entryY=-0.024;entryDx=0;entryDy=0;entryPerimeter=0;strokeWidth=3;startArrow=none;startFill=0;endArrow=open;endFill=0;dashed=1;" parent="1" source="D3WIe9RIHGnLOvGYux2O-4" target="D3WIe9RIHGnLOvGYux2O-10" edge="1">
          <mxGeometry relative="1" as="geometry" />
        </mxCell>
      </root>
    </mxGraphModel>
  </diagram>
  <diagram id="hyZwcESnN6lAd_B0q4iO" name="CC-Name">
    <mxGraphModel dx="940" dy="936" grid="1" gridSize="10" guides="1" tooltips="1" connect="1" arrows="1" fold="1" page="1" pageScale="1" pageWidth="827" pageHeight="1169" math="0" shadow="0">
      <root>
        <mxCell id="0" />
        <mxCell id="1" parent="0" />
        <mxCell id="neUArfvqESF95zC9jI_X-1" style="edgeStyle=orthogonalEdgeStyle;rounded=0;orthogonalLoop=1;jettySize=auto;html=1;exitX=1;exitY=0.5;exitDx=0;exitDy=0;strokeWidth=3;endArrow=none;endFill=0;fontStyle=1" parent="1" source="2-KV--0uYpJgkuX9Go2V-1" target="j0eVWiqdwrOs89bp4kW4-1" edge="1">
          <mxGeometry relative="1" as="geometry" />
        </mxCell>
        <mxCell id="oN8VyaM2432HfnWZ3xE_-1" value="&lt;font style=&quot;font-size: 13px;&quot;&gt;1&lt;/font&gt;" style="edgeLabel;html=1;align=center;verticalAlign=middle;resizable=0;points=[];fontSize=11;fontFamily=Helvetica;fontColor=default;fontStyle=1" parent="neUArfvqESF95zC9jI_X-1" vertex="1" connectable="0">
          <mxGeometry x="-0.7008" y="1" relative="1" as="geometry">
            <mxPoint as="offset" />
          </mxGeometry>
        </mxCell>
        <mxCell id="oN8VyaM2432HfnWZ3xE_-2" value="*" style="edgeLabel;html=1;align=center;verticalAlign=middle;resizable=0;points=[];fontSize=11;fontFamily=Helvetica;fontColor=default;fontStyle=1" parent="neUArfvqESF95zC9jI_X-1" vertex="1" connectable="0">
          <mxGeometry x="0.5734" y="3" relative="1" as="geometry">
            <mxPoint y="3" as="offset" />
          </mxGeometry>
        </mxCell>
        <mxCell id="2-KV--0uYpJgkuX9Go2V-1" value="userSetting" style="rounded=0;whiteSpace=wrap;html=1;fillColor=none;strokeWidth=3;fontStyle=1" parent="1" vertex="1">
          <mxGeometry x="210" y="240" width="120" height="40" as="geometry" />
        </mxCell>
        <mxCell id="oN8VyaM2432HfnWZ3xE_-3" style="edgeStyle=orthogonalEdgeStyle;shape=connector;rounded=0;orthogonalLoop=1;jettySize=auto;html=1;exitX=1;exitY=0.5;exitDx=0;exitDy=0;entryX=0;entryY=0.5;entryDx=0;entryDy=0;labelBackgroundColor=default;strokeColor=default;strokeWidth=3;fontFamily=Helvetica;fontSize=11;fontColor=default;endArrow=classic;endFill=1;dashed=1;fontStyle=1" parent="1" source="j0eVWiqdwrOs89bp4kW4-1" target="VYhryhUYQx2x68YiHuiP-1" edge="1">
          <mxGeometry relative="1" as="geometry" />
        </mxCell>
        <mxCell id="iPyo7pL_H7chWLZWR3BL-2" style="edgeStyle=orthogonalEdgeStyle;shape=connector;rounded=0;orthogonalLoop=1;jettySize=auto;html=1;exitX=0.5;exitY=1;exitDx=0;exitDy=0;entryX=0.5;entryY=0;entryDx=0;entryDy=0;labelBackgroundColor=default;strokeColor=default;strokeWidth=3;fontFamily=Helvetica;fontSize=11;fontColor=default;endArrow=classic;dashed=1;fontStyle=1" parent="1" source="j0eVWiqdwrOs89bp4kW4-1" target="DY-HHLsXCKikNwKritHH-1" edge="1">
          <mxGeometry relative="1" as="geometry" />
        </mxCell>
        <mxCell id="j0eVWiqdwrOs89bp4kW4-1" value="AppConfig" style="rounded=0;whiteSpace=wrap;html=1;strokeColor=default;strokeWidth=3;fontFamily=Helvetica;fontSize=12;fontColor=default;fillColor=none;fontStyle=1" parent="1" vertex="1">
          <mxGeometry x="370" y="240" width="120" height="40" as="geometry" />
        </mxCell>
        <mxCell id="e04h93G_8J7THwl6zq9--1" value="&lt;meta charset=&quot;utf-8&quot;&gt;&lt;span style=&quot;color: rgb(0, 0, 0); font-family: Helvetica; font-size: 12px; font-style: normal; font-variant-ligatures: normal; font-variant-caps: normal; letter-spacing: normal; orphans: 2; text-align: center; text-indent: 0px; text-transform: none; widows: 2; word-spacing: 0px; -webkit-text-stroke-width: 0px; background-color: rgb(251, 251, 251); text-decoration-thickness: initial; text-decoration-style: initial; text-decoration-color: initial; float: none; display: inline !important;&quot;&gt;&amp;lt;&amp;lt;UnityEngineDeploy&amp;gt;&amp;gt;&lt;/span&gt;" style="rounded=0;whiteSpace=wrap;html=1;strokeColor=default;strokeWidth=3;fontFamily=Helvetica;fontSize=12;fontColor=default;fillColor=none;fontStyle=1" parent="1" vertex="1">
          <mxGeometry x="510" y="160" width="160" height="40" as="geometry" />
        </mxCell>
        <mxCell id="iPyo7pL_H7chWLZWR3BL-1" style="edgeStyle=orthogonalEdgeStyle;rounded=0;orthogonalLoop=1;jettySize=auto;html=1;exitX=0.5;exitY=0;exitDx=0;exitDy=0;entryX=0.5;entryY=1;entryDx=0;entryDy=0;strokeWidth=3;endArrow=block;endFill=0;dashed=1;fontStyle=1" parent="1" source="VYhryhUYQx2x68YiHuiP-1" target="e04h93G_8J7THwl6zq9--1" edge="1">
          <mxGeometry relative="1" as="geometry" />
        </mxCell>
        <mxCell id="VYhryhUYQx2x68YiHuiP-1" value="&lt;meta charset=&quot;utf-8&quot;&gt;&lt;span style=&quot;color: rgb(0, 0, 0); font-family: Helvetica; font-size: 12px; font-style: normal; font-variant-ligatures: normal; font-variant-caps: normal; letter-spacing: normal; orphans: 2; text-align: center; text-indent: 0px; text-transform: none; widows: 2; word-spacing: 0px; -webkit-text-stroke-width: 0px; background-color: rgb(251, 251, 251); text-decoration-thickness: initial; text-decoration-style: initial; text-decoration-color: initial; float: none; display: inline !important;&quot;&gt;localEngineStorage&lt;/span&gt;" style="rounded=0;whiteSpace=wrap;html=1;strokeColor=default;strokeWidth=3;fontFamily=Helvetica;fontSize=12;fontColor=default;fillColor=none;fontStyle=1" parent="1" vertex="1">
          <mxGeometry x="530" y="240" width="120" height="40" as="geometry" />
        </mxCell>
        <mxCell id="iPyo7pL_H7chWLZWR3BL-4" style="edgeStyle=orthogonalEdgeStyle;shape=connector;rounded=0;orthogonalLoop=1;jettySize=auto;html=1;exitX=0.5;exitY=1;exitDx=0;exitDy=0;entryX=0.5;entryY=0;entryDx=0;entryDy=0;labelBackgroundColor=default;strokeColor=default;strokeWidth=3;fontFamily=Helvetica;fontSize=11;fontColor=default;endArrow=block;endFill=0;dashed=1;fontStyle=1" parent="1" source="DY-HHLsXCKikNwKritHH-1" target="dRU9NCp8xEcV3dq54HdX-1" edge="1">
          <mxGeometry relative="1" as="geometry" />
        </mxCell>
        <mxCell id="DY-HHLsXCKikNwKritHH-1" value="&lt;meta charset=&quot;utf-8&quot;&gt;&lt;span style=&quot;color: rgb(0, 0, 0); font-family: Helvetica; font-size: 12px; font-style: normal; font-variant-ligatures: normal; font-variant-caps: normal; letter-spacing: normal; orphans: 2; text-align: center; text-indent: 0px; text-transform: none; widows: 2; word-spacing: 0px; -webkit-text-stroke-width: 0px; background-color: rgb(251, 251, 251); text-decoration-thickness: initial; text-decoration-style: initial; text-decoration-color: initial; float: none; display: inline !important;&quot;&gt;ServiceImpl&lt;/span&gt;" style="rounded=0;whiteSpace=wrap;html=1;strokeColor=default;strokeWidth=3;fontFamily=Helvetica;fontSize=12;fontColor=default;fillColor=none;fontStyle=1" parent="1" vertex="1">
          <mxGeometry x="370" y="320" width="120" height="40" as="geometry" />
        </mxCell>
        <mxCell id="dRU9NCp8xEcV3dq54HdX-1" value="&lt;meta charset=&quot;utf-8&quot;&gt;&lt;span style=&quot;color: rgb(0, 0, 0); font-family: Helvetica; font-size: 12px; font-style: normal; font-variant-ligatures: normal; font-variant-caps: normal; letter-spacing: normal; orphans: 2; text-align: center; text-indent: 0px; text-transform: none; widows: 2; word-spacing: 0px; -webkit-text-stroke-width: 0px; background-color: rgb(251, 251, 251); text-decoration-thickness: initial; text-decoration-style: initial; text-decoration-color: initial; float: none; display: inline !important;&quot;&gt;&amp;lt;&amp;lt;qServiceGame&amp;gt;&amp;gt;&lt;/span&gt;" style="rounded=0;whiteSpace=wrap;html=1;strokeColor=default;strokeWidth=3;fontFamily=Helvetica;fontSize=12;fontColor=default;fillColor=none;fontStyle=1" parent="1" vertex="1">
          <mxGeometry x="370" y="400" width="120" height="40" as="geometry" />
        </mxCell>
        <mxCell id="iPyo7pL_H7chWLZWR3BL-5" style="edgeStyle=orthogonalEdgeStyle;shape=connector;rounded=0;orthogonalLoop=1;jettySize=auto;html=1;exitX=0.5;exitY=0;exitDx=0;exitDy=0;entryX=0.5;entryY=0;entryDx=0;entryDy=0;labelBackgroundColor=default;strokeColor=default;strokeWidth=3;fontFamily=Helvetica;fontSize=11;fontColor=default;endArrow=none;endFill=0;dashed=1;fontStyle=1" parent="1" source="EyajdSmudeUJVy7bJvj0-1" target="EyajdSmudeUJVy7bJvj0-3" edge="1">
          <mxGeometry relative="1" as="geometry">
            <Array as="points">
              <mxPoint x="250" y="480" />
              <mxPoint x="570" y="480" />
            </Array>
          </mxGeometry>
        </mxCell>
        <mxCell id="iPyo7pL_H7chWLZWR3BL-11" style="edgeStyle=orthogonalEdgeStyle;shape=connector;rounded=0;orthogonalLoop=1;jettySize=auto;html=1;exitX=1;exitY=0.5;exitDx=0;exitDy=0;entryX=0;entryY=0.5;entryDx=0;entryDy=0;labelBackgroundColor=default;strokeColor=default;strokeWidth=3;fontFamily=Helvetica;fontSize=11;fontColor=default;endArrow=none;endFill=0;fontStyle=1" parent="1" source="EyajdSmudeUJVy7bJvj0-1" target="EyajdSmudeUJVy7bJvj0-3" edge="1">
          <mxGeometry relative="1" as="geometry" />
        </mxCell>
        <mxCell id="iPyo7pL_H7chWLZWR3BL-12" value="1" style="edgeLabel;html=1;align=center;verticalAlign=middle;resizable=0;points=[];fontSize=11;fontFamily=Helvetica;fontColor=default;fontStyle=1" parent="iPyo7pL_H7chWLZWR3BL-11" vertex="1" connectable="0">
          <mxGeometry x="-0.7686" y="-2" relative="1" as="geometry">
            <mxPoint x="-3" y="-2" as="offset" />
          </mxGeometry>
        </mxCell>
        <mxCell id="iPyo7pL_H7chWLZWR3BL-13" value="1" style="edgeLabel;html=1;align=center;verticalAlign=middle;resizable=0;points=[];fontSize=11;fontFamily=Helvetica;fontColor=default;fontStyle=1" parent="iPyo7pL_H7chWLZWR3BL-11" vertex="1" connectable="0">
          <mxGeometry x="0.7857" y="2" relative="1" as="geometry">
            <mxPoint as="offset" />
          </mxGeometry>
        </mxCell>
        <mxCell id="EyajdSmudeUJVy7bJvj0-1" value="&lt;meta charset=&quot;utf-8&quot;&gt;&lt;span style=&quot;color: rgb(0, 0, 0); font-family: Helvetica; font-size: 12px; font-style: normal; font-variant-ligatures: normal; font-variant-caps: normal; letter-spacing: normal; orphans: 2; text-align: center; text-indent: 0px; text-transform: none; widows: 2; word-spacing: 0px; -webkit-text-stroke-width: 0px; background-color: rgb(251, 251, 251); text-decoration-thickness: initial; text-decoration-style: initial; text-decoration-color: initial; float: none; display: inline !important;&quot;&gt;&amp;lt;&amp;lt;PlayPolicy&amp;gt;&amp;gt;&lt;/span&gt;" style="rounded=0;whiteSpace=wrap;html=1;strokeColor=default;strokeWidth=3;fontFamily=Helvetica;fontSize=12;fontColor=default;fillColor=none;fontStyle=1" parent="1" vertex="1">
          <mxGeometry x="190" y="520" width="120" height="40" as="geometry" />
        </mxCell>
        <mxCell id="EyajdSmudeUJVy7bJvj0-3" value="&lt;meta charset=&quot;utf-8&quot;&gt;&lt;span style=&quot;color: rgb(0, 0, 0); font-family: Helvetica; font-size: 12px; font-style: normal; font-variant-ligatures: normal; font-variant-caps: normal; letter-spacing: normal; orphans: 2; text-align: center; text-indent: 0px; text-transform: none; widows: 2; word-spacing: 0px; -webkit-text-stroke-width: 0px; background-color: rgb(251, 251, 251); text-decoration-thickness: initial; text-decoration-style: initial; text-decoration-color: initial; float: none; display: inline !important;&quot;&gt;&amp;lt;&amp;lt;PlayPolicy&amp;gt;&amp;gt;&lt;/span&gt;" style="rounded=0;whiteSpace=wrap;html=1;strokeColor=default;strokeWidth=3;fontFamily=Helvetica;fontSize=12;fontColor=default;fillColor=none;fontStyle=1" parent="1" vertex="1">
          <mxGeometry x="520" y="520" width="120" height="40" as="geometry" />
        </mxCell>
        <mxCell id="iPyo7pL_H7chWLZWR3BL-7" style="edgeStyle=orthogonalEdgeStyle;shape=connector;rounded=0;orthogonalLoop=1;jettySize=auto;html=1;exitX=0.5;exitY=0;exitDx=0;exitDy=0;entryX=0.5;entryY=0;entryDx=0;entryDy=0;labelBackgroundColor=default;strokeColor=default;strokeWidth=3;fontFamily=Helvetica;fontSize=11;fontColor=default;endArrow=none;endFill=0;dashed=1;fontStyle=1" parent="1" source="lANJ7bxU53RYtu7-cnqn-1" target="vvFO_xQPDRcldWIdKe7U-3" edge="1">
          <mxGeometry relative="1" as="geometry">
            <Array as="points">
              <mxPoint x="110" y="600" />
              <mxPoint x="390" y="600" />
            </Array>
          </mxGeometry>
        </mxCell>
        <mxCell id="iPyo7pL_H7chWLZWR3BL-9" style="edgeStyle=orthogonalEdgeStyle;shape=connector;rounded=0;orthogonalLoop=1;jettySize=auto;html=1;exitX=1;exitY=0.5;exitDx=0;exitDy=0;labelBackgroundColor=default;strokeColor=default;strokeWidth=3;fontFamily=Helvetica;fontSize=11;fontColor=default;endArrow=ERone;endFill=0;startArrow=ERone;startFill=0;fontStyle=1" parent="1" source="lANJ7bxU53RYtu7-cnqn-1" target="vvFO_xQPDRcldWIdKe7U-2" edge="1">
          <mxGeometry relative="1" as="geometry" />
        </mxCell>
        <mxCell id="lANJ7bxU53RYtu7-cnqn-1" value="NpcPolicy" style="rounded=0;whiteSpace=wrap;html=1;strokeColor=default;strokeWidth=3;fontFamily=Helvetica;fontSize=12;fontColor=default;fillColor=none;fontStyle=1" parent="1" vertex="1">
          <mxGeometry x="50" y="640" width="120" height="40" as="geometry" />
        </mxCell>
        <mxCell id="iPyo7pL_H7chWLZWR3BL-8" style="edgeStyle=orthogonalEdgeStyle;shape=connector;rounded=0;orthogonalLoop=1;jettySize=auto;html=1;exitX=0.5;exitY=0;exitDx=0;exitDy=0;labelBackgroundColor=default;strokeColor=default;strokeWidth=3;fontFamily=Helvetica;fontSize=11;fontColor=default;endArrow=block;endFill=0;dashed=1;fontStyle=1" parent="1" source="vvFO_xQPDRcldWIdKe7U-2" target="EyajdSmudeUJVy7bJvj0-1" edge="1">
          <mxGeometry relative="1" as="geometry" />
        </mxCell>
        <mxCell id="iPyo7pL_H7chWLZWR3BL-10" style="edgeStyle=orthogonalEdgeStyle;shape=connector;rounded=0;orthogonalLoop=1;jettySize=auto;html=1;exitX=1;exitY=0.5;exitDx=0;exitDy=0;entryX=0;entryY=0.5;entryDx=0;entryDy=0;labelBackgroundColor=default;strokeColor=default;strokeWidth=3;fontFamily=Helvetica;fontSize=11;fontColor=default;endArrow=ERone;endFill=0;startArrow=ERone;startFill=0;fontStyle=1" parent="1" source="vvFO_xQPDRcldWIdKe7U-2" target="vvFO_xQPDRcldWIdKe7U-3" edge="1">
          <mxGeometry relative="1" as="geometry" />
        </mxCell>
        <mxCell id="vvFO_xQPDRcldWIdKe7U-2" value="CprPolicy" style="rounded=0;whiteSpace=wrap;html=1;strokeColor=default;strokeWidth=3;fontFamily=Helvetica;fontSize=12;fontColor=default;fillColor=none;fontStyle=1" parent="1" vertex="1">
          <mxGeometry x="190" y="640" width="120" height="40" as="geometry" />
        </mxCell>
        <mxCell id="vvFO_xQPDRcldWIdKe7U-3" value="VentilPolicy" style="rounded=0;whiteSpace=wrap;html=1;strokeColor=default;strokeWidth=3;fontFamily=Helvetica;fontSize=12;fontColor=default;fillColor=none;fontStyle=1" parent="1" vertex="1">
          <mxGeometry x="330" y="640" width="120" height="40" as="geometry" />
        </mxCell>
        <mxCell id="iPyo7pL_H7chWLZWR3BL-14" style="edgeStyle=orthogonalEdgeStyle;shape=connector;rounded=0;orthogonalLoop=1;jettySize=auto;html=1;exitX=0.5;exitY=0;exitDx=0;exitDy=0;entryX=0.5;entryY=1;entryDx=0;entryDy=0;labelBackgroundColor=default;strokeColor=default;strokeWidth=3;fontFamily=Helvetica;fontSize=11;fontColor=default;endArrow=block;endFill=0;dashed=1;fontStyle=1" parent="1" source="76-FPDETiEcYfDElaCPc-2" target="EyajdSmudeUJVy7bJvj0-3" edge="1">
          <mxGeometry relative="1" as="geometry" />
        </mxCell>
        <mxCell id="-j2nc7yi8qlAfGm7btzb-1" style="edgeStyle=orthogonalEdgeStyle;shape=connector;rounded=0;orthogonalLoop=1;jettySize=auto;html=1;exitX=1;exitY=0.5;exitDx=0;exitDy=0;entryX=0.005;entryY=0.55;entryDx=0;entryDy=0;entryPerimeter=0;labelBackgroundColor=default;strokeColor=default;strokeWidth=3;fontFamily=Helvetica;fontSize=11;fontColor=default;endArrow=classic;endFill=1;dashed=1;" parent="1" source="76-FPDETiEcYfDElaCPc-2" target="gBSL3dFbc9zaey1vFAYF-1" edge="1">
          <mxGeometry relative="1" as="geometry" />
        </mxCell>
        <mxCell id="76-FPDETiEcYfDElaCPc-2" value="Ending" style="rounded=0;whiteSpace=wrap;html=1;strokeColor=default;strokeWidth=3;fontFamily=Helvetica;fontSize=12;fontColor=default;fillColor=none;fontStyle=1" parent="1" vertex="1">
          <mxGeometry x="520" y="640" width="120" height="40" as="geometry" />
        </mxCell>
        <mxCell id="gBSL3dFbc9zaey1vFAYF-1" value="&lt;meta charset=&quot;utf-8&quot;&gt;&lt;span style=&quot;color: rgb(0, 0, 0); font-family: Helvetica; font-size: 12px; font-style: normal; font-variant-ligatures: normal; font-variant-caps: normal; letter-spacing: normal; orphans: 2; text-align: center; text-indent: 0px; text-transform: none; widows: 2; word-spacing: 0px; -webkit-text-stroke-width: 0px; background-color: rgb(251, 251, 251); text-decoration-thickness: initial; text-decoration-style: initial; text-decoration-color: initial; float: none; display: inline !important;&quot;&gt;PlayRepository&lt;/span&gt;" style="rounded=0;whiteSpace=wrap;html=1;fillColor=none;strokeWidth=3;fontStyle=1" parent="1" vertex="1">
          <mxGeometry x="680" y="638" width="120" height="40" as="geometry" />
        </mxCell>
        <mxCell id="iPyo7pL_H7chWLZWR3BL-6" value="" style="endArrow=block;html=1;rounded=0;labelBackgroundColor=default;strokeColor=default;strokeWidth=3;fontFamily=Helvetica;fontSize=11;fontColor=default;shape=connector;entryX=0.5;entryY=1;entryDx=0;entryDy=0;endFill=0;dashed=1;fontStyle=1" parent="1" target="dRU9NCp8xEcV3dq54HdX-1" edge="1">
          <mxGeometry width="50" height="50" relative="1" as="geometry">
            <mxPoint x="430" y="480" as="sourcePoint" />
            <mxPoint x="460" y="360" as="targetPoint" />
          </mxGeometry>
        </mxCell>
      </root>
    </mxGraphModel>
  </diagram>
  <diagram id="S71Oq5C4Bawbh5AqSAQk" name="클래스 다이어그램">
    <mxGraphModel dx="1851" dy="569" grid="1" gridSize="10" guides="1" tooltips="1" connect="1" arrows="1" fold="1" page="1" pageScale="1" pageWidth="827" pageHeight="1169" math="0" shadow="0">
      <root>
        <mxCell id="0" />
        <mxCell id="1" parent="0" />
        <mxCell id="m-niC33rZH4rMKya0REV-10" value="GameController" style="swimlane;fontStyle=1;align=center;verticalAlign=top;childLayout=stackLayout;horizontal=1;startSize=26;horizontalStack=0;resizeParent=1;resizeParentMax=0;resizeLast=0;collapsible=1;marginBottom=0;whiteSpace=wrap;html=1;strokeWidth=3;" vertex="1" parent="1">
          <mxGeometry x="200" y="380" width="160" height="200" as="geometry">
            <mxRectangle x="200" y="380" width="130" height="30" as="alternateBounds" />
          </mxGeometry>
        </mxCell>
        <mxCell id="m-niC33rZH4rMKya0REV-11" value="- gameState&lt;br&gt;- currentDraw&lt;br&gt;- playAge&lt;br&gt;- playStage&lt;br&gt;- playDifficulty" style="text;strokeColor=none;fillColor=none;align=left;verticalAlign=top;spacingLeft=4;spacingRight=4;overflow=hidden;rotatable=0;points=[[0,0.5],[1,0.5]];portConstraint=eastwest;whiteSpace=wrap;html=1;" vertex="1" parent="m-niC33rZH4rMKya0REV-10">
          <mxGeometry y="26" width="160" height="84" as="geometry" />
        </mxCell>
        <mxCell id="m-niC33rZH4rMKya0REV-12" value="" style="line;strokeWidth=1;fillColor=none;align=left;verticalAlign=middle;spacingTop=-1;spacingLeft=3;spacingRight=3;rotatable=0;labelPosition=right;points=[];portConstraint=eastwest;strokeColor=inherit;" vertex="1" parent="m-niC33rZH4rMKya0REV-10">
          <mxGeometry y="110" width="160" height="8" as="geometry" />
        </mxCell>
        <mxCell id="m-niC33rZH4rMKya0REV-13" value="+ StartGame()&lt;br&gt;+ EndGame()&lt;br&gt;+ PauseGame()&lt;br&gt;+ ResumeGame()&lt;br&gt;+ EndingLog()" style="text;strokeColor=none;fillColor=none;align=left;verticalAlign=top;spacingLeft=4;spacingRight=4;overflow=hidden;rotatable=0;points=[[0,0.5],[1,0.5]];portConstraint=eastwest;whiteSpace=wrap;html=1;" vertex="1" parent="m-niC33rZH4rMKya0REV-10">
          <mxGeometry y="118" width="160" height="82" as="geometry" />
        </mxCell>
        <mxCell id="m-niC33rZH4rMKya0REV-14" value="InputController" style="swimlane;fontStyle=1;align=center;verticalAlign=top;childLayout=stackLayout;horizontal=1;startSize=26;horizontalStack=0;resizeParent=1;resizeParentMax=0;resizeLast=0;collapsible=1;marginBottom=0;whiteSpace=wrap;html=1;strokeWidth=3;" vertex="1" parent="1">
          <mxGeometry x="-10" y="380" width="160" height="130" as="geometry">
            <mxRectangle x="200" y="380" width="130" height="30" as="alternateBounds" />
          </mxGeometry>
        </mxCell>
        <mxCell id="m-niC33rZH4rMKya0REV-15" value="- touchPosition&lt;br&gt;- touchTime" style="text;strokeColor=none;fillColor=none;align=left;verticalAlign=top;spacingLeft=4;spacingRight=4;overflow=hidden;rotatable=0;points=[[0,0.5],[1,0.5]];portConstraint=eastwest;whiteSpace=wrap;html=1;" vertex="1" parent="m-niC33rZH4rMKya0REV-14">
          <mxGeometry y="26" width="160" height="44" as="geometry" />
        </mxCell>
        <mxCell id="m-niC33rZH4rMKya0REV-16" value="" style="line;strokeWidth=1;fillColor=none;align=left;verticalAlign=middle;spacingTop=-1;spacingLeft=3;spacingRight=3;rotatable=0;labelPosition=right;points=[];portConstraint=eastwest;strokeColor=inherit;" vertex="1" parent="m-niC33rZH4rMKya0REV-14">
          <mxGeometry y="70" width="160" height="8" as="geometry" />
        </mxCell>
        <mxCell id="m-niC33rZH4rMKya0REV-17" value="+ CaptureTouch()&lt;br&gt;+ GetTouchPosition()&lt;br&gt;+ GetTouchTime()" style="text;strokeColor=none;fillColor=none;align=left;verticalAlign=top;spacingLeft=4;spacingRight=4;overflow=hidden;rotatable=0;points=[[0,0.5],[1,0.5]];portConstraint=eastwest;whiteSpace=wrap;html=1;" vertex="1" parent="m-niC33rZH4rMKya0REV-14">
          <mxGeometry y="78" width="160" height="52" as="geometry" />
        </mxCell>
        <mxCell id="m-niC33rZH4rMKya0REV-18" value="Note" style="swimlane;fontStyle=1;align=center;verticalAlign=top;childLayout=stackLayout;horizontal=1;startSize=26;horizontalStack=0;resizeParent=1;resizeParentMax=0;resizeLast=0;collapsible=1;marginBottom=0;whiteSpace=wrap;html=1;strokeWidth=3;" vertex="1" parent="1">
          <mxGeometry x="10" y="570" width="160" height="140" as="geometry">
            <mxRectangle x="200" y="380" width="130" height="30" as="alternateBounds" />
          </mxGeometry>
        </mxCell>
        <mxCell id="m-niC33rZH4rMKya0REV-19" value="- creationTime&lt;br&gt;- displayTime&lt;br&gt;- hitTime" style="text;strokeColor=none;fillColor=none;align=left;verticalAlign=top;spacingLeft=4;spacingRight=4;overflow=hidden;rotatable=0;points=[[0,0.5],[1,0.5]];portConstraint=eastwest;whiteSpace=wrap;html=1;" vertex="1" parent="m-niC33rZH4rMKya0REV-18">
          <mxGeometry y="26" width="160" height="54" as="geometry" />
        </mxCell>
        <mxCell id="m-niC33rZH4rMKya0REV-20" value="" style="line;strokeWidth=1;fillColor=none;align=left;verticalAlign=middle;spacingTop=-1;spacingLeft=3;spacingRight=3;rotatable=0;labelPosition=right;points=[];portConstraint=eastwest;strokeColor=inherit;" vertex="1" parent="m-niC33rZH4rMKya0REV-18">
          <mxGeometry y="80" width="160" height="8" as="geometry" />
        </mxCell>
        <mxCell id="m-niC33rZH4rMKya0REV-21" value="+ CreateNote()&lt;br&gt;+ DestroyNote()" style="text;strokeColor=none;fillColor=none;align=left;verticalAlign=top;spacingLeft=4;spacingRight=4;overflow=hidden;rotatable=0;points=[[0,0.5],[1,0.5]];portConstraint=eastwest;whiteSpace=wrap;html=1;" vertex="1" parent="m-niC33rZH4rMKya0REV-18">
          <mxGeometry y="88" width="160" height="52" as="geometry" />
        </mxCell>
        <mxCell id="m-niC33rZH4rMKya0REV-22" value="ScoringSystem" style="swimlane;fontStyle=1;align=center;verticalAlign=top;childLayout=stackLayout;horizontal=1;startSize=26;horizontalStack=0;resizeParent=1;resizeParentMax=0;resizeLast=0;collapsible=1;marginBottom=0;whiteSpace=wrap;html=1;strokeWidth=3;" vertex="1" parent="1">
          <mxGeometry x="240" y="620" width="160" height="120" as="geometry">
            <mxRectangle x="200" y="380" width="130" height="30" as="alternateBounds" />
          </mxGeometry>
        </mxCell>
        <mxCell id="m-niC33rZH4rMKya0REV-23" value="- currentHeart&lt;br&gt;- judgementCriteria" style="text;strokeColor=none;fillColor=none;align=left;verticalAlign=top;spacingLeft=4;spacingRight=4;overflow=hidden;rotatable=0;points=[[0,0.5],[1,0.5]];portConstraint=eastwest;whiteSpace=wrap;html=1;" vertex="1" parent="m-niC33rZH4rMKya0REV-22">
          <mxGeometry y="26" width="160" height="34" as="geometry" />
        </mxCell>
        <mxCell id="m-niC33rZH4rMKya0REV-24" value="" style="line;strokeWidth=1;fillColor=none;align=left;verticalAlign=middle;spacingTop=-1;spacingLeft=3;spacingRight=3;rotatable=0;labelPosition=right;points=[];portConstraint=eastwest;strokeColor=inherit;" vertex="1" parent="m-niC33rZH4rMKya0REV-22">
          <mxGeometry y="60" width="160" height="8" as="geometry" />
        </mxCell>
        <mxCell id="m-niC33rZH4rMKya0REV-25" value="+ CalculateScore()&lt;br&gt;+ UpdateScore()" style="text;strokeColor=none;fillColor=none;align=left;verticalAlign=top;spacingLeft=4;spacingRight=4;overflow=hidden;rotatable=0;points=[[0,0.5],[1,0.5]];portConstraint=eastwest;whiteSpace=wrap;html=1;" vertex="1" parent="m-niC33rZH4rMKya0REV-22">
          <mxGeometry y="68" width="160" height="52" as="geometry" />
        </mxCell>
        <mxCell id="m-niC33rZH4rMKya0REV-26" value="&amp;lt;&amp;lt;VentilJudgement&amp;gt;&amp;gt;" style="swimlane;fontStyle=1;align=center;verticalAlign=top;childLayout=stackLayout;horizontal=1;startSize=26;horizontalStack=0;resizeParent=1;resizeParentMax=0;resizeLast=0;collapsible=1;marginBottom=0;whiteSpace=wrap;html=1;strokeWidth=3;" vertex="1" parent="1">
          <mxGeometry x="470" y="460" width="160" height="400" as="geometry">
            <mxRectangle x="200" y="380" width="130" height="30" as="alternateBounds" />
          </mxGeometry>
        </mxCell>
        <mxCell id="m-niC33rZH4rMKya0REV-27" value="- missTiming&lt;br&gt;- goodTiming&lt;br&gt;- greatTiming&lt;br&gt;- perfectTiming&lt;br&gt;- missCriteria&lt;br&gt;- goodCriteria&lt;br&gt;- greatCriteria&lt;br&gt;- perfectCriteria" style="text;strokeColor=none;fillColor=none;align=left;verticalAlign=top;spacingLeft=4;spacingRight=4;overflow=hidden;rotatable=0;points=[[0,0.5],[1,0.5]];portConstraint=eastwest;whiteSpace=wrap;html=1;" vertex="1" parent="m-niC33rZH4rMKya0REV-26">
          <mxGeometry y="26" width="160" height="124" as="geometry" />
        </mxCell>
        <mxCell id="m-niC33rZH4rMKya0REV-28" value="" style="line;strokeWidth=1;fillColor=none;align=left;verticalAlign=middle;spacingTop=-1;spacingLeft=3;spacingRight=3;rotatable=0;labelPosition=right;points=[];portConstraint=eastwest;strokeColor=inherit;" vertex="1" parent="m-niC33rZH4rMKya0REV-26">
          <mxGeometry y="150" width="160" height="8" as="geometry" />
        </mxCell>
        <mxCell id="m-niC33rZH4rMKya0REV-29" value="+ setMissTiming()&lt;br&gt;+ setGoodTiming()&lt;br&gt;+ setGreatTiming()&lt;br&gt;+ setPerfectTiming()&lt;br&gt;+ getMissTiming()&lt;br style=&quot;border-color: var(--border-color);&quot;&gt;+ getGoodTiming()&lt;br style=&quot;border-color: var(--border-color);&quot;&gt;+ getGreatTiming()&lt;br style=&quot;border-color: var(--border-color);&quot;&gt;+ getPerfectTiming()&lt;br&gt;+ setMissCriteria()&lt;br style=&quot;border-color: var(--border-color);&quot;&gt;+ setGoodCriteria()&lt;br style=&quot;border-color: var(--border-color);&quot;&gt;+ setGreatCriteria()&lt;br style=&quot;border-color: var(--border-color);&quot;&gt;+ setPerfectCriteria()&lt;br&gt;+ getMissCriteria()&lt;br style=&quot;border-color: var(--border-color);&quot;&gt;+ getGoodCriteria()&lt;br style=&quot;border-color: var(--border-color);&quot;&gt;+ getGreatCriteria()&lt;br style=&quot;border-color: var(--border-color);&quot;&gt;+ getPerfectCriteria()" style="text;strokeColor=none;fillColor=none;align=left;verticalAlign=top;spacingLeft=4;spacingRight=4;overflow=hidden;rotatable=0;points=[[0,0.5],[1,0.5]];portConstraint=eastwest;whiteSpace=wrap;html=1;" vertex="1" parent="m-niC33rZH4rMKya0REV-26">
          <mxGeometry y="158" width="160" height="242" as="geometry" />
        </mxCell>
      </root>
    </mxGraphModel>
  </diagram>
</mxfile>
